<svg width="41" height="40" viewBox="0 0 41 40" fill="none" xmlns="http://www.w3.org/2000/svg">
<rect x="0.333374" width="40" height="40" rx="6.66667" fill="#F59321"/>
<g clip-path="url(#clip0_201_2204)">
<path d="M22.7512 10.5444H17.7518C17.0616 10.5444 16.5019 9.98475 16.5019 9.29453L18.1684 8.04468H22.7512C23.4414 8.04468 24.001 8.60409 24.001 9.29453C24.001 9.98475 23.4414 10.5444 22.7512 10.5444ZM29.3666 16.2637L25.8312 12.7285C25.343 12.2405 25.343 11.449 25.8312 10.9609L27.8936 11.2555L31.1339 14.4959C31.6222 14.9838 31.6222 15.7754 31.1339 16.2636C30.646 16.7514 29.8548 16.7515 29.3666 16.2637ZM15.2017 16.6803L11.6663 13.1451C11.1781 12.6571 11.1781 11.8656 11.6663 11.3776L13.7287 11.6722L16.969 14.9125C17.4572 15.4005 17.4572 16.1921 16.969 16.6803C16.481 17.1681 15.6899 17.1681 15.2017 16.6803ZM24.3043 15.1774L20.7694 18.7129C20.2812 19.2011 19.4898 19.2011 19.0016 18.7129L19.2962 16.6506L22.5365 13.4102C23.0248 12.922 23.8163 12.922 24.3043 13.4102C24.7923 13.8982 24.7923 14.6893 24.3043 15.1774ZM13.6361 19.3436L10.1011 22.8791C9.61291 23.3673 8.82139 23.3673 8.33337 22.8791L8.62834 20.8168L11.8687 17.5764C12.3569 17.0884 13.148 17.0884 13.6361 17.5764C14.1239 18.0644 14.1239 18.8555 13.6361 19.3436ZM19.8348 23.8761H14.8354C14.1453 23.8761 13.5856 23.3165 13.5856 22.6262L15.2521 21.3764H19.8348C20.5251 21.3764 21.0847 21.9358 21.0847 22.6262C21.0847 23.3165 20.5251 23.8761 19.8348 23.8761ZM26.0841 18.8767H31.0835C31.7737 18.8767 32.3333 19.4361 32.3333 20.1265L30.6669 21.3764H26.0841C25.3939 21.3764 24.8342 20.8168 24.8342 20.1265C24.8342 19.4361 25.3939 18.8767 26.0841 18.8767ZM11.9191 25.9592H16.9185C17.6088 25.9592 18.1684 26.5186 18.1684 27.209L16.5019 28.4589H11.9191C11.229 28.4589 10.6693 27.8992 10.6693 27.209C10.6693 26.5186 11.229 25.9592 11.9191 25.9592ZM23.2182 28.0925L19.6833 31.628C19.1951 32.1162 18.4036 32.1162 17.9155 31.628L18.2105 29.5657L21.4509 26.3253C21.9391 25.8373 22.7302 25.8373 23.2182 26.3253C23.706 26.8133 23.706 27.6044 23.2182 28.0925ZM27.7001 28.0925L24.1648 24.5575C23.6766 24.0696 23.6766 23.278 24.1648 22.7898L26.2271 23.0847L29.4675 26.3253C29.9553 26.8133 29.9553 27.6044 29.4675 28.0925C28.9795 28.5805 28.1884 28.5805 27.7001 28.0925Z" fill="white"/>
</g>
<defs>
<clipPath id="clip0_201_2204">
<rect width="24" height="24" fill="white" transform="translate(8.33337 8)"/>
</clipPath>
</defs>
</svg>
