<svg width="40" height="40" viewBox="0 0 40 40" fill="none" xmlns="http://www.w3.org/2000/svg">
<rect width="40" height="40" rx="6.66667" fill="#F59321"/>
<g clip-path="url(#clip0_201_2150)">
<path d="M15.125 31.25H24.125C24.6811 31.2485 25.2283 31.1107 25.7188 30.8488C25.7676 30.8211 25.8097 30.7828 25.8418 30.7367C25.8738 30.6906 25.8952 30.6379 25.9042 30.5825C25.9132 30.5271 25.9096 30.4703 25.8937 30.4164C25.8779 30.3626 25.8501 30.313 25.8125 30.2712C24.8868 29.2818 24.372 27.9774 24.3725 26.6225C24.3725 24.8525 25.76 22.3175 27.2825 20.7313C27.4213 20.5917 27.4995 20.4031 27.5 20.2062V17.5175C27.5132 17.0639 27.436 16.6123 27.2729 16.1889C27.1097 15.7655 26.8639 15.3788 26.5497 15.0514C26.2356 14.724 25.8594 14.4624 25.4431 14.2819C25.0268 14.1013 24.5787 14.0055 24.125 14H21.5V9.875C21.4991 9.57691 21.3803 9.29127 21.1695 9.08049C20.9587 8.8697 20.6731 8.75089 20.375 8.75H18.875C18.5769 8.75089 18.2913 8.8697 18.0805 9.08049C17.8697 9.29127 17.7509 9.57691 17.75 9.875V14H15.125C14.2307 14.0026 13.3737 14.359 12.7414 14.9914C12.109 15.6237 11.7526 16.4807 11.75 17.375V27.875C11.7526 28.7693 12.109 29.6263 12.7414 30.2586C13.3737 30.891 14.2307 31.2474 15.125 31.25ZM17.75 27.9688C17.7505 28.1007 17.7163 28.2304 17.6506 28.3448C17.585 28.4592 17.4904 28.5543 17.3763 28.6205C17.2622 28.6867 17.1327 28.7216 17.0007 28.7217C16.8688 28.7219 16.7392 28.6872 16.625 28.6213L15.2975 27.8525C15.1838 27.7866 15.0895 27.6919 15.0239 27.5781C14.9583 27.4642 14.9238 27.3351 14.9238 27.2038C14.9238 27.0724 14.9583 26.9433 15.0239 26.8294C15.0895 26.7156 15.1838 26.6209 15.2975 26.555L16.625 25.79C16.739 25.7242 16.8682 25.6896 16.9998 25.6895C17.1314 25.6895 17.2607 25.7241 17.3747 25.7898C17.4887 25.8555 17.5833 25.9501 17.6492 26.064C17.7151 26.1779 17.7499 26.3072 17.75 26.4387V27.9688ZM22.625 28.6063C22.511 28.672 22.3818 28.7067 22.2502 28.7067C22.1186 28.7068 21.9893 28.6722 21.8753 28.6064C21.7613 28.5407 21.6666 28.4461 21.6008 28.3322C21.5349 28.2183 21.5001 28.0891 21.5 27.9575V26.4387C21.5001 26.3072 21.5349 26.1779 21.6008 26.064C21.6666 25.9501 21.7613 25.8555 21.8753 25.7898C21.9893 25.7241 22.1186 25.6895 22.2502 25.6895C22.3818 25.6896 22.511 25.7242 22.625 25.79L23.63 26.3713C23.6035 26.9012 23.6489 27.4323 23.765 27.95L22.625 28.6063ZM18.5 11.2513H20.75V14H18.5V11.2513ZM14.75 18.4587C14.7499 18.2672 14.7876 18.0774 14.8608 17.9004C14.9341 17.7234 15.0416 17.5625 15.177 17.427C15.3125 17.2916 15.4734 17.1841 15.6504 17.1108C15.8274 17.0376 16.0172 16.9999 16.2088 17H23.0413C23.2328 16.9999 23.4226 17.0376 23.5996 17.1108C23.7766 17.1841 23.9375 17.2916 24.073 17.427C24.2084 17.5625 24.3159 17.7234 24.3892 17.9004C24.4624 18.0774 24.5001 18.2672 24.5 18.4587V22.2913C24.5001 22.4828 24.4624 22.6726 24.3892 22.8496C24.3159 23.0266 24.2084 23.1875 24.073 23.323C23.9375 23.4584 23.7766 23.5659 23.5996 23.6392C23.4226 23.7124 23.2328 23.7501 23.0413 23.75H16.2088C16.0172 23.7501 15.8274 23.7124 15.6504 23.6392C15.4734 23.5659 15.3125 23.4584 15.177 23.323C15.0416 23.1875 14.9341 23.0266 14.8608 22.8496C14.7876 22.6726 14.7499 22.4828 14.75 22.2913V18.4587Z" fill="white"/>
<path d="M30.062 20.0502C29.8393 19.9815 29.6 19.9897 29.3825 20.0735C27.8187 20.6543 25.1206 24.3455 25.1206 26.6206C25.1316 27.8409 25.6241 29.0075 26.4909 29.8665C27.3577 30.7256 28.5287 31.2075 29.749 31.2075C30.9694 31.2075 32.1404 30.7256 33.0072 29.8665C33.874 29.0075 34.3665 27.8409 34.3775 26.6206C34.3775 24.2543 31.6531 20.5227 30.062 20.0502ZM30.5 29.75C30.4258 29.75 30.3533 29.728 30.2916 29.6868C30.23 29.6455 30.1819 29.587 30.1535 29.5185C30.1251 29.4499 30.1177 29.3745 30.1322 29.3018C30.1467 29.229 30.1824 29.1622 30.2348 29.1098C30.2873 29.0573 30.3541 29.0216 30.4268 29.0072C30.4996 28.9927 30.575 29.0001 30.6435 29.0285C30.712 29.0569 30.7706 29.1049 30.8118 29.1666C30.853 29.2283 30.875 29.3008 30.875 29.375C30.875 29.4744 30.8355 29.5698 30.7651 29.6401C30.6948 29.7104 30.5994 29.75 30.5 29.75ZM32.1275 26.6225C32.1275 26.523 32.167 26.4276 32.2373 26.3573C32.3076 26.287 32.403 26.2475 32.5025 26.2475C32.6019 26.2475 32.6973 26.287 32.7676 26.3573C32.838 26.4276 32.8775 26.523 32.8775 26.6225C32.8783 27.4218 32.5723 28.191 32.0225 28.7712C31.9537 28.8435 31.8591 28.8856 31.7593 28.8884C31.6596 28.8913 31.5627 28.8545 31.49 28.7862C31.4181 28.7179 31.3762 28.624 31.3734 28.5249C31.3706 28.4258 31.4071 28.3297 31.475 28.2575C31.895 27.8169 32.1287 27.2312 32.1275 26.6225Z" fill="white"/>
</g>
<defs>
<clipPath id="clip0_201_2150">
<rect width="24" height="24" fill="white" transform="translate(11 8)"/>
</clipPath>
</defs>
</svg>
