<svg width="40" height="40" viewBox="0 0 40 40" fill="none" xmlns="http://www.w3.org/2000/svg">
<rect width="40" height="40" rx="6.66667" fill="#F59321"/>
<g clip-path="url(#clip0_201_2181)">
<path d="M30.2174 12.4838C30.0402 12.3065 29.8297 12.1658 29.5981 12.0698C29.3665 11.9737 29.1182 11.9243 28.8675 11.9242L28.0752 11.9253L28.0761 11.1339C28.0761 10.6433 27.8891 10.1563 27.5159 9.78229C26.4728 8.73924 24.7803 8.73924 23.7364 9.78229C23.4874 10.0304 23.2899 10.3254 23.1553 10.6501C23.0208 10.9749 22.9517 11.323 22.9521 11.6745V13.3487C22.9524 13.6999 22.8834 14.0476 22.749 14.3721C22.6146 14.6965 22.4175 14.9912 22.1689 15.2393L15.238 22.1694C14.99 22.4184 14.6951 22.6157 14.3705 22.75C14.0458 22.8844 13.6977 22.953 13.3463 22.952H11.6732C10.9885 22.952 10.3054 23.2133 9.78264 23.7344C8.73903 24.7783 8.73986 26.4717 9.78264 27.5156C10.1407 27.8736 10.6262 28.0752 11.1326 28.076L11.9248 28.0741L11.924 28.8671C11.924 29.3558 12.111 29.8431 12.4842 30.2171C13.5272 31.261 15.2198 31.261 16.2637 30.2171C16.5125 29.9691 16.7099 29.6745 16.8444 29.35C16.979 29.0256 17.0482 28.6778 17.048 28.3265V26.6526C17.0476 26.3012 17.1166 25.9531 17.251 25.6283C17.3854 25.3036 17.5826 25.0085 17.8312 24.7601L24.7624 17.8308C25.0105 17.582 25.3054 17.3847 25.63 17.2503C25.9547 17.1158 26.3027 17.0469 26.6541 17.0474H28.3271C28.6783 17.0483 29.0262 16.9796 29.3507 16.8453C29.6752 16.711 29.9699 16.5138 30.2177 16.265C31.261 15.2211 31.2602 13.5274 30.2174 12.4838Z" fill="white"/>
</g>
<defs>
<clipPath id="clip0_201_2181">
<rect width="22" height="22" fill="white" transform="translate(9 9)"/>
</clipPath>
</defs>
</svg>
