<svg width="41" height="40" viewBox="0 0 41 40" fill="none" xmlns="http://www.w3.org/2000/svg">
<rect x="0.666626" width="40" height="40" rx="6.66667" fill="#F59321"/>
<g clip-path="url(#clip0_201_2131)">
<path d="M21.6884 16.5162C22.0892 16.4816 22.4791 16.3682 22.836 16.1827C23.1929 15.9972 23.5097 15.7431 23.7683 15.4351C24.0269 15.127 24.2222 14.771 24.3431 14.3874C24.464 14.0037 24.5081 13.6 24.4728 13.1994C24.4016 12.3837 24.4166 12.8244 24.4166 11.1875C24.4166 11.1378 24.3968 11.0901 24.3617 11.0549C24.3265 11.0198 24.2788 11 24.2291 11C24.1793 11 24.1317 11.0198 24.0965 11.0549C24.0613 11.0901 24.0416 11.1378 24.0416 11.1875V12.5844L23.7697 12.6087C22.9695 12.6792 22.2288 13.061 21.7072 13.6719C21.9917 13.0976 22.0888 12.4485 21.9849 11.8161C21.8809 11.1837 21.5812 10.5999 21.1278 10.1469L20.8541 9.875V8.375C20.8541 8.32527 20.8343 8.27758 20.7992 8.24242C20.764 8.20725 20.7163 8.1875 20.6666 8.1875C20.6168 8.1875 20.5692 8.20725 20.534 8.24242C20.4988 8.27758 20.4791 8.32527 20.4791 8.375V9.875L20.2072 10.1469C19.7539 10.5999 19.4541 11.1837 19.3502 11.8161C19.2462 12.4485 19.3433 13.0976 19.6278 13.6719C19.1062 13.061 18.3656 12.6792 17.5653 12.6087L17.2916 12.5844V11.1875C17.2916 11.1378 17.2718 11.0901 17.2367 11.0549C17.2015 11.0198 17.1538 11 17.1041 11C17.0543 11 17.0067 11.0198 16.9715 11.0549C16.9363 11.0901 16.9166 11.1378 16.9166 11.1875C16.9166 12.8263 16.9316 12.3856 16.8603 13.1994C16.8251 13.6 16.8691 14.0037 16.99 14.3874C17.1109 14.771 17.3063 15.127 17.5649 15.4351C17.8235 15.7431 18.1403 15.9972 18.4971 16.1827C18.854 16.3682 19.244 16.4816 19.6447 16.5162L20.2916 16.5725V18.3912C20.1541 17.751 19.8149 17.1716 19.3239 16.7383C18.8329 16.305 18.2159 16.0405 17.5634 15.9838L16.9166 15.9275L16.8603 16.5744C16.8251 16.975 16.8691 17.3787 16.99 17.7624C17.1109 18.146 17.3063 18.502 17.5649 18.8101C17.8235 19.1181 18.1403 19.3722 18.4971 19.5577C18.854 19.7432 19.244 19.8566 19.6447 19.8912L20.2916 19.9475V21.7662C20.1541 21.126 19.8149 20.5466 19.3239 20.1133C18.8329 19.68 18.2159 19.4155 17.5634 19.3588L16.9166 19.3025L16.8603 19.9494C16.8251 20.35 16.8691 20.7537 16.99 21.1374C17.1109 21.521 17.3063 21.877 17.5649 22.1851C17.8235 22.4931 18.1403 22.7472 18.4971 22.9327C18.854 23.1182 19.244 23.2316 19.6447 23.2662L20.2916 23.3225V25.1413C20.1541 24.501 19.8149 23.9216 19.3239 23.4883C18.8329 23.055 18.2159 22.7905 17.5634 22.7338L16.9166 22.6775L16.8603 23.3244C16.8251 23.725 16.8691 24.1287 16.99 24.5124C17.1109 24.896 17.3063 25.252 17.5649 25.5601C17.8235 25.8681 18.1403 26.1222 18.4971 26.3077C18.854 26.4932 19.244 26.6066 19.6447 26.6413L20.2916 26.6975V31.8125H21.0416V26.6975L21.6884 26.6413C22.0892 26.6066 22.4791 26.4932 22.836 26.3077C23.1929 26.1222 23.5097 25.8681 23.7683 25.5601C24.0269 25.252 24.2222 24.896 24.3431 24.5124C24.464 24.1287 24.5081 23.725 24.4728 23.3244L24.4166 22.6775L23.7697 22.7338C23.1173 22.7905 22.5003 23.055 22.0092 23.4883C21.5182 23.9216 21.1791 24.501 21.0416 25.1413V23.3225L21.6884 23.2662C22.0892 23.2316 22.4791 23.1182 22.836 22.9327C23.1929 22.7472 23.5097 22.4931 23.7683 22.1851C24.0269 21.877 24.2222 21.521 24.3431 21.1374C24.464 20.7537 24.5081 20.35 24.4728 19.9494L24.4166 19.3025L23.7697 19.3588C23.1173 19.4155 22.5003 19.68 22.0092 20.1133C21.5182 20.5466 21.1791 21.126 21.0416 21.7662V19.9475L21.6884 19.8912C22.0892 19.8566 22.4791 19.7432 22.836 19.5577C23.1929 19.3722 23.5097 19.1181 23.7683 18.8101C24.0269 18.502 24.2222 18.146 24.3431 17.7624C24.464 17.3787 24.5081 16.975 24.4728 16.5744L24.4166 15.9275L23.7697 15.9838C23.1173 16.0405 22.5003 16.305 22.0092 16.7383C21.5182 17.1716 21.1791 17.751 21.0416 18.3912V16.5725L21.6884 16.5162ZM20.0366 14.2925C20.1378 14.4106 20.1941 14.465 20.2916 14.5625C20.2916 15.4062 20.3591 14.9375 20.0366 14.2925ZM21.0416 14.5625C21.1372 14.4669 21.1953 14.4106 21.2966 14.2925C20.9741 14.9375 21.0416 15.4062 21.0416 14.5625ZM13.4384 21.3912C15.0116 21.245 16.1741 19.76 16.0353 18.0744C15.9791 17.2719 15.9791 17.7125 15.9791 16.0625C15.9791 16.0128 15.9593 15.9651 15.9242 15.9299C15.889 15.8948 15.8413 15.875 15.7916 15.875C15.7418 15.875 15.6942 15.8948 15.659 15.9299C15.6238 15.9651 15.6041 16.0128 15.6041 16.0625V17.4631C14.8541 17.5325 14.2091 17.7144 13.5978 18.3744C13.8365 17.8131 13.9019 17.1933 13.7857 16.5945C13.6694 15.9958 13.3767 15.4455 12.9453 15.0144L12.6716 14.75V13.25C12.6716 13.2003 12.6518 13.1526 12.6167 13.1174C12.5815 13.0823 12.5338 13.0625 12.4841 13.0625C12.4343 13.0625 12.3867 13.0823 12.3515 13.1174C12.3163 13.1526 12.2966 13.2003 12.2966 13.25V14.75L12.0247 15.0219C11.5939 15.4526 11.3015 16.0021 11.185 16.6001C11.0684 17.198 11.1329 17.8171 11.3703 18.3781C10.6691 17.6769 10.1291 17.5325 9.36032 17.4631V16.0625C9.36032 16.0128 9.34057 15.9651 9.3054 15.9299C9.27024 15.8948 9.22255 15.875 9.17282 15.875C9.12309 15.875 9.0754 15.8948 9.04024 15.9299C9.00508 15.9651 8.98532 16.0128 8.98532 16.0625C8.98532 17.7013 8.99845 17.2606 8.93282 18.0744C8.79595 19.7619 9.95845 21.245 11.5316 21.3912L12.1091 21.4456V23.1462C11.9804 22.5496 11.6682 22.0082 11.2163 21.5979C10.7644 21.1877 10.1954 20.9292 9.58907 20.8588L8.98532 20.8025L8.93282 21.4494C8.79595 23.1369 9.95845 24.62 11.5316 24.7663L12.1091 24.8206V26.5212C11.9804 25.9246 11.6682 25.3832 11.2163 24.9729C10.7644 24.5627 10.1954 24.3042 9.58907 24.2337L8.98532 24.1775L8.93282 24.8244C8.79595 26.5119 9.95845 27.995 11.5316 28.1413L12.1091 28.1956V31.8125H12.8591V28.1956L13.4384 28.1413C15.0116 27.995 16.1741 26.51 16.0353 24.8244L15.9791 24.1775L15.3772 24.2337C14.7702 24.305 14.2009 24.5648 13.7492 24.9765C13.2975 25.3881 12.9862 25.931 12.8591 26.5287V24.8206L13.4384 24.7663C15.0116 24.62 16.1741 23.135 16.0353 21.4494L15.9791 20.8025L15.3772 20.8588C14.7702 20.93 14.2009 21.1898 13.7492 21.6015C13.2975 22.0131 12.9862 22.556 12.8591 23.1537V21.4456L13.4384 21.3912ZM12.1091 19.7769C11.9759 19.1975 11.7959 19.1244 12.1091 19.4375V19.7769ZM12.8591 19.4375L13.0316 19.2613C12.8122 19.7638 12.8591 20.0469 12.8591 19.4375ZM29.8016 24.7663C31.3747 24.62 32.5372 23.135 32.4003 21.4494L32.3478 20.8025L31.7441 20.8588C31.1378 20.9292 30.5688 21.1877 30.1168 21.5979C29.6649 22.0082 29.3527 22.5496 29.2241 23.1462V21.4456L29.8016 21.3912C31.3747 21.245 32.5372 19.76 32.4003 18.0744C32.3347 17.2606 32.3478 17.6994 32.3478 16.0625C32.3478 16.0128 32.3281 15.9651 32.2929 15.9299C32.2577 15.8948 32.2101 15.875 32.1603 15.875C32.1106 15.875 32.0629 15.8948 32.0277 15.9299C31.9926 15.9651 31.9728 16.0128 31.9728 16.0625V17.4631C31.2228 17.5306 30.5778 17.7163 29.9666 18.3744C30.2053 17.8131 30.2707 17.1933 30.1544 16.5945C30.0382 15.9958 29.7455 15.4455 29.3141 15.0144L29.0366 14.75V13.25C29.0366 13.2003 29.0168 13.1526 28.9817 13.1174C28.9465 13.0823 28.8988 13.0625 28.8491 13.0625C28.7993 13.0625 28.7517 13.0823 28.7165 13.1174C28.6813 13.1526 28.6616 13.2003 28.6616 13.25V14.75L28.3897 15.0219C27.9589 15.4526 27.6665 16.0021 27.55 16.6001C27.4334 17.198 27.4979 17.8171 27.7353 18.3781C27.0416 17.6769 26.4941 17.5325 25.7291 17.4631V16.0625C25.7291 16.0128 25.7093 15.9651 25.6742 15.9299C25.639 15.8948 25.5913 15.875 25.5416 15.875C25.4918 15.875 25.4442 15.8948 25.409 15.9299C25.3738 15.9651 25.3541 16.0128 25.3541 16.0625C25.3541 17.7125 25.3672 17.2719 25.3016 18.0744C25.1628 19.7619 26.3253 21.245 27.8984 21.3912L28.4778 21.4456V23.1537C28.3502 22.5549 28.0378 22.0112 27.5847 21.5994C27.1315 21.1877 26.5605 20.9286 25.9522 20.8588L25.3541 20.8025L25.3016 21.4494C25.1628 23.1369 26.3253 24.62 27.8984 24.7663L28.4778 24.8206V26.5287C28.3502 25.9299 28.0378 25.3862 27.5847 24.9744C27.1315 24.5627 26.5605 24.3036 25.9522 24.2337L25.3541 24.1775L25.3016 24.8244C25.1628 26.5119 26.3253 27.995 27.8984 28.1413L28.4778 28.1956V31.8125H29.2278V28.1956L29.8053 28.1413C31.3784 27.995 32.5409 26.51 32.4041 24.8244L32.3516 24.1775L31.7478 24.2337C31.1415 24.3042 30.5725 24.5627 30.1206 24.9729C29.6686 25.3832 29.3565 25.9246 29.2278 26.5212V24.8206L29.8016 24.7663ZM29.2241 19.4375C29.5297 19.1319 29.3553 19.1994 29.2241 19.7769V19.4375ZM28.4741 19.7825C28.4298 19.6057 28.3734 19.4322 28.3053 19.2631C28.5228 19.49 28.4741 19.3588 28.4741 19.7825Z" fill="white"/>
</g>
<defs>
<clipPath id="clip0_201_2131">
<rect width="24" height="24" fill="white" transform="translate(8.66663 8)"/>
</clipPath>
</defs>
</svg>
