<svg width="40" height="41" viewBox="0 0 40 41" fill="none" xmlns="http://www.w3.org/2000/svg">
<rect y="0.5" width="40" height="40" rx="6.66667" fill="#F59321"/>
<path fill-rule="evenodd" clip-rule="evenodd" d="M16.0018 21.2236C16.0489 21.1256 16.0345 21.0072 15.9576 20.9303L15.1236 20.0963C15.0299 20.0026 14.8779 20.0026 14.7842 20.0963L9.94367 24.9368C9.19618 25.6843 8.77624 26.6981 8.77623 27.7552C8.77622 28.8123 9.19615 29.8261 9.94363 30.5736C10.6911 31.3211 11.7049 31.7411 12.762 31.7411C13.8191 31.7411 14.8329 31.3212 15.5804 30.5737L19.1955 26.9586C19.2892 26.8649 19.2876 26.7138 19.2077 26.608C18.9949 26.3263 18.872 25.9846 18.8587 25.6281C18.8576 25.5999 18.8573 25.5717 18.8576 25.5436C18.8606 25.2807 18.369 24.7011 18.1063 24.6928C17.9935 24.6892 17.8806 24.6777 17.7685 24.6582C17.2544 24.5688 16.7829 24.3158 16.4244 23.9367C16.0659 23.5576 15.8394 23.0728 15.7788 22.5545C15.7253 22.0975 15.8033 21.636 16.0018 21.2236ZM26.3676 16.5132C26.3676 16.365 26.3237 16.2202 26.2414 16.0971C26.1591 15.9739 26.0422 15.8779 25.9053 15.8212C25.7685 15.7646 25.6179 15.7497 25.4726 15.7786C25.3273 15.8075 25.1939 15.8789 25.0891 15.9836C24.9844 16.0883 24.9131 16.2218 24.8842 16.3671C24.8553 16.5124 24.8701 16.6629 24.9268 16.7998C24.9835 16.9366 25.0795 17.0536 25.2027 17.1359C25.3258 17.2182 25.4706 17.2621 25.6188 17.2621C25.7171 17.2621 25.8145 17.2427 25.9054 17.2051C25.9962 17.1674 26.0788 17.1123 26.1483 17.0427C26.2179 16.9732 26.273 16.8906 26.3107 16.7998C26.3483 16.7089 26.3677 16.6115 26.3676 16.5132ZM27.0239 16.5132C27.0239 16.7911 26.9415 17.0628 26.7871 17.2938C26.6327 17.5249 26.4132 17.705 26.1565 17.8114C25.8997 17.9178 25.6172 17.9456 25.3446 17.8914C25.072 17.8372 24.8216 17.7033 24.6251 17.5068C24.4286 17.3103 24.2948 17.0599 24.2405 16.7873C24.1863 16.5147 24.2142 16.2322 24.3205 15.9754C24.4269 15.7187 24.607 15.4992 24.8381 15.3448C25.0692 15.1904 25.3408 15.108 25.6188 15.108C25.9914 15.1081 26.3488 15.2561 26.6123 15.5196C26.8758 15.7831 27.0239 16.1405 27.0239 16.5132ZM18.1827 20.5094C18.5316 20.5094 18.8727 20.6128 19.1628 20.8066C19.4529 21.0005 19.679 21.276 19.8126 21.5983C19.9461 21.9207 19.9811 22.2754 19.913 22.6176C19.845 22.9598 19.6769 23.2741 19.4302 23.5209C19.1835 23.7676 18.8692 23.9356 18.527 24.0037C18.1848 24.0717 17.8301 24.0368 17.5077 23.9033C17.1854 23.7698 16.9099 23.5437 16.716 23.2536C16.5222 22.9635 16.4187 22.6224 16.4187 22.2735C16.4187 21.8056 16.6046 21.3569 16.9354 21.0261C17.2662 20.6953 17.7149 20.5094 18.1827 20.5094ZM20.5906 24.4864C20.8036 24.4864 21.0118 24.5496 21.189 24.6679C21.3661 24.7863 21.5041 24.9545 21.5856 25.1513C21.6672 25.3481 21.6885 25.5647 21.6469 25.7736C21.6054 25.9825 21.5028 26.1744 21.3522 26.3251C21.2015 26.4757 21.0096 26.5783 20.8007 26.6198C20.5917 26.6614 20.3752 26.64 20.1784 26.5585C19.9816 26.477 19.8134 26.3389 19.695 26.1618C19.5767 25.9847 19.5135 25.7764 19.5135 25.5634C19.5135 25.422 19.5414 25.2819 19.5955 25.1512C19.6496 25.0206 19.729 24.9018 19.829 24.8018C19.929 24.7018 20.0477 24.6225 20.1784 24.5684C20.3091 24.5142 20.4491 24.4864 20.5906 24.4864ZM21.9553 16.2904C22.2907 16.2904 22.6185 16.3898 22.8973 16.5761C23.1761 16.7624 23.3934 17.0272 23.5217 17.337C23.65 17.6468 23.6836 17.9877 23.6182 18.3165C23.5528 18.6454 23.3913 18.9475 23.1542 19.1846C22.9171 19.4217 22.615 19.5832 22.2861 19.6486C21.9572 19.714 21.6163 19.6805 21.3065 19.5521C20.9967 19.4238 20.732 19.2065 20.5457 18.9277C20.3594 18.6489 20.2599 18.3211 20.2599 17.9858C20.2599 17.7631 20.3038 17.5427 20.389 17.337C20.4742 17.1313 20.5991 16.9444 20.7565 16.7869C20.9139 16.6295 21.1008 16.5046 21.3065 16.4194C21.5122 16.3342 21.7327 16.2903 21.9553 16.2904ZM21.4317 12.4765C21.6447 12.4765 21.8529 12.5396 22.0301 12.658C22.2072 12.7763 22.3452 12.9445 22.4268 13.1413C22.5083 13.3381 22.5296 13.5547 22.4881 13.7636C22.4465 13.9726 22.3439 14.1645 22.1933 14.3151C22.0427 14.4657 21.8507 14.5683 21.6418 14.6099C21.4329 14.6514 21.2163 14.6301 21.0195 14.5486C20.8227 14.467 20.6545 14.329 20.5362 14.1519C20.4178 13.9747 20.3546 13.7665 20.3547 13.5535C20.3547 13.2678 20.4681 12.9939 20.6701 12.7919C20.8721 12.59 21.146 12.4765 21.4317 12.4765ZM23.8019 28.865C23.6954 28.6805 23.646 28.4686 23.6599 28.2561C23.6738 28.0435 23.7505 27.8399 23.8802 27.6709C24.0098 27.5019 24.1867 27.3751 24.3884 27.3067C24.5901 27.2382 24.8076 27.2311 25.0134 27.2862C25.2191 27.3413 25.4039 27.4562 25.5443 27.6164C25.6848 27.7765 25.7746 27.9747 25.8024 28.1859C25.8302 28.3971 25.7948 28.6118 25.7005 28.8029C25.6063 28.9939 25.4576 29.1527 25.2731 29.2592C25.1506 29.3299 25.0154 29.3758 24.8752 29.3943C24.735 29.4128 24.5925 29.4034 24.4559 29.3668C24.3192 29.3302 24.1912 29.267 24.079 29.1809C23.9668 29.0948 23.8726 28.9875 23.8019 28.865ZM31.1055 28.8768C30.999 29.0613 30.8402 29.21 30.6491 29.3042C30.4581 29.3985 30.2434 29.4339 30.0322 29.4061C29.821 29.3783 29.6227 29.2885 29.4626 29.1481C29.3024 29.0076 29.1875 28.8228 29.1324 28.617C29.0772 28.4113 29.0844 28.1938 29.1528 27.9921C29.2213 27.7903 29.3481 27.6135 29.5171 27.4838C29.6861 27.3541 29.8897 27.2775 30.1023 27.2635C30.3149 27.2496 30.5268 27.299 30.7113 27.4055C30.8338 27.4763 30.9411 27.5704 31.0272 27.6826C31.1133 27.7948 31.1765 27.9229 31.2131 28.0595C31.2497 28.1961 31.259 28.3386 31.2406 28.4788C31.2221 28.6191 31.1762 28.7543 31.1055 28.8768ZM27.459 22.5538C27.6721 22.5538 27.8803 22.617 28.0574 22.7353C28.2346 22.8537 28.3726 23.0219 28.4541 23.2187C28.5357 23.4155 28.557 23.6321 28.5154 23.841C28.4739 24.0499 28.3713 24.2418 28.2207 24.3925C28.07 24.5431 27.8781 24.6457 27.6692 24.6872C27.4603 24.7288 27.2437 24.7075 27.0469 24.6259C26.8501 24.5444 26.6819 24.4064 26.5635 24.2292C26.4452 24.0521 26.382 23.8439 26.382 23.6308C26.382 23.3452 26.4955 23.0713 26.6975 22.8693C26.8995 22.6673 27.1734 22.5538 27.459 22.5538ZM28.654 25.0932C28.5736 25.0358 28.4665 25.0446 28.383 25.0972C28.1073 25.2711 27.7871 25.3642 27.459 25.3642C27.1309 25.3642 26.8107 25.2711 26.5351 25.0972C26.4516 25.0446 26.3445 25.0358 26.2641 25.0932C26.0258 25.2631 25.826 25.4823 25.6787 25.7365C25.5313 25.9909 25.4405 26.2734 25.4116 26.5647C25.4018 26.6628 25.4625 26.7513 25.5496 26.7976C25.8369 26.9505 26.0763 27.182 26.2389 27.4664C26.4015 27.7509 26.4795 28.0746 26.4656 28.3997C26.4614 28.4983 26.5069 28.5955 26.5965 28.6369C26.8643 28.7605 27.1562 28.8253 27.4525 28.8263C27.7485 28.8272 28.0406 28.7643 28.3091 28.6426C28.3992 28.6017 28.4454 28.5044 28.4415 28.4055C28.4287 28.0795 28.5083 27.7552 28.6727 27.4708C28.8372 27.1864 29.0786 26.9557 29.3676 26.8042C29.4552 26.7583 29.5166 26.6698 29.5071 26.5714C29.4791 26.279 29.3887 25.9953 29.2412 25.7397C29.0937 25.4841 28.8933 25.2638 28.654 25.0932ZM16.2138 15.5691C16.1073 15.7536 15.9485 15.9023 15.7574 15.9966C15.5664 16.0908 15.3517 16.1262 15.1405 16.0984C14.9293 16.0706 14.7311 15.9808 14.5709 15.8404C14.4107 15.6999 14.2958 15.5151 14.2407 15.3094C14.1856 15.1036 14.1927 14.8861 14.2612 14.6844C14.3296 14.4827 14.4564 14.3058 14.6254 14.1761C14.7944 14.0464 14.9981 13.9698 15.2106 13.9559C15.4232 13.9419 15.6351 13.9914 15.8196 14.0979C16.067 14.2407 16.2474 14.4759 16.3214 14.7518C16.3953 15.0277 16.3566 15.3217 16.2138 15.5691ZM12.5567 9.26379C12.7697 9.26379 12.978 9.32696 13.1551 9.44531C13.3322 9.56366 13.4703 9.73187 13.5518 9.92867C13.6333 10.1255 13.6546 10.342 13.6131 10.551C13.5715 10.7599 13.4689 10.9518 13.3183 11.1024C13.1677 11.2531 12.9758 11.3556 12.7668 11.3972C12.5579 11.4388 12.3414 11.4174 12.1446 11.3359C11.9477 11.2544 11.7795 11.1163 11.6612 10.9392C11.5428 10.7621 11.4797 10.5539 11.4797 10.3408C11.4797 10.0552 11.5931 9.78124 11.7951 9.57925C11.9971 9.37727 12.2711 9.26379 12.5567 9.26379ZM8.89442 15.557C8.78791 15.3725 8.7385 15.1605 8.75243 14.948C8.76636 14.7354 8.84301 14.5318 8.97269 14.3628C9.10236 14.1938 9.27924 14.067 9.48096 13.9985C9.68267 13.9301 9.90016 13.9229 10.1059 13.9781C10.3117 14.0332 10.4965 14.1481 10.6369 14.3083C10.7774 14.4684 10.8672 14.6666 10.895 14.8778C10.9228 15.089 10.8874 15.3037 10.7931 15.4948C10.6989 15.6858 10.5502 15.8447 10.3657 15.9512C10.1183 16.094 9.82433 16.1327 9.54841 16.0588C9.2725 15.9848 9.03725 15.8043 8.89442 15.557ZM13.7542 11.8019C13.6737 11.7443 13.5662 11.7531 13.4826 11.806C13.2065 11.9806 12.8856 12.0742 12.5567 12.0742C12.2278 12.0742 11.9069 11.9806 11.6308 11.806C11.5472 11.7531 11.4398 11.7443 11.3593 11.8019C11.1235 11.9705 10.9255 12.1875 10.7789 12.4391C10.6322 12.6907 10.541 12.97 10.5105 13.2584C10.5001 13.3567 10.5606 13.4457 10.6476 13.4925C10.9351 13.6468 11.1741 13.8799 11.3357 14.1659C11.4973 14.4518 11.5737 14.7767 11.5577 15.1025C11.5528 15.2013 11.598 15.2991 11.6877 15.3409C11.9581 15.4668 12.2534 15.5327 12.553 15.5333C12.8528 15.5338 13.1483 15.4689 13.4193 15.3438C13.509 15.3024 13.5545 15.205 13.5502 15.1063C13.5358 14.7808 13.6135 14.4566 13.7761 14.1717C13.9387 13.8868 14.1783 13.655 14.4659 13.5018C14.5531 13.4554 14.6138 13.3668 14.6039 13.2685C14.5747 12.9783 14.4839 12.6969 14.337 12.4434C14.1902 12.19 13.9913 11.9715 13.7542 11.8019ZM16.9974 17.2398C17.2104 17.2398 17.4187 17.303 17.5958 17.4213C17.7729 17.5397 17.911 17.7079 17.9925 17.9047C18.074 18.1015 18.0953 18.3181 18.0538 18.527C18.0122 18.7359 17.9096 18.9278 17.759 19.0784C17.6084 19.2291 17.4165 19.3316 17.2075 19.3732C16.9986 19.4148 16.7821 19.3934 16.5853 19.3119C16.3885 19.2304 16.2202 19.0924 16.1019 18.9152C15.9835 18.7381 15.9204 18.5299 15.9204 18.3169C15.9204 18.0312 16.0339 17.7573 16.2358 17.5553C16.4378 17.3533 16.7118 17.2398 16.9974 17.2398ZM22.4587 20.9016C22.6717 20.9016 22.88 20.9648 23.0571 21.0831C23.2342 21.2015 23.3722 21.3697 23.4538 21.5665C23.5353 21.7633 23.5566 21.9798 23.515 22.1888C23.4735 22.3977 23.3709 22.5896 23.2203 22.7402C23.0696 22.8909 22.8777 22.9934 22.6688 23.035C22.4599 23.0765 22.2433 23.0552 22.0465 22.9737C21.8497 22.8922 21.6815 22.7541 21.5631 22.577C21.4448 22.3999 21.3816 22.1916 21.3816 21.9786C21.3816 21.8372 21.4095 21.6971 21.4636 21.5664C21.5178 21.4358 21.5971 21.317 21.6971 21.217C21.7971 21.117 21.9159 21.0377 22.0465 20.9836C22.1772 20.9294 22.3173 20.9016 22.4587 20.9016ZM25.2316 20.9225C25.1379 21.0162 24.9859 21.0162 24.8922 20.9225L23.7878 19.8181C23.6941 19.7244 23.6952 19.5732 23.7789 19.4704C24.1189 19.0528 24.3069 18.5289 24.3069 17.9856C24.3069 17.362 24.0591 16.7638 23.6181 16.3228C23.1771 15.8818 22.579 15.6341 21.9553 15.6341C21.4121 15.6341 20.8882 15.8221 20.4706 16.1621C20.3678 16.2458 20.2166 16.2469 20.1228 16.1531L19.5946 15.6249C19.5009 15.5312 19.5009 15.3793 19.5946 15.2855L19.9777 14.9024C20.0743 14.8059 20.2311 14.8107 20.3369 14.8969C20.4528 14.9913 20.5806 15.0704 20.7173 15.1323C20.9304 15.2286 21.1607 15.2808 21.3944 15.2858C21.6282 15.2907 21.8605 15.2484 22.0774 15.1612C22.2944 15.074 22.4914 14.9439 22.6568 14.7786C22.8221 14.6132 22.9522 14.4162 23.0394 14.1993C23.1266 13.9823 23.1689 13.75 23.164 13.5162C23.159 13.2825 23.1068 13.0522 23.0105 12.8392C22.9486 12.7024 22.8695 12.5746 22.7752 12.4588C22.6889 12.3529 22.6841 12.1961 22.7807 12.0996L24.4353 10.4453C25.1843 9.70494 26.1958 9.29104 27.2489 9.29405C28.302 9.29707 29.3112 9.71675 30.0559 10.4614C30.8005 11.2061 31.2203 12.2152 31.2233 13.2683C31.2264 14.3215 30.8125 15.333 30.0721 16.082L25.2316 20.9225Z" fill="white"/>
</svg>
