<svg width="41" height="40" viewBox="0 0 41 40" fill="none" xmlns="http://www.w3.org/2000/svg">
<rect x="0.666626" width="40" height="40" rx="6.66667" fill="#F59321"/>
<path d="M10.4321 31.4H12.1121C12.4404 31.4 12.6907 31.0973 12.6197 30.7767C11.8138 27.1337 14.3429 24.7282 17.3962 27.391C19.2499 28.7053 21.6226 29.0643 23.9016 28.9076C31.5986 28.3779 34.212 14.9153 27.8119 11.8863C24.5155 10.3263 24.2969 13.1326 22.368 13.3695C20.4629 13.0028 20.8934 10.7079 20.9153 9.12462C20.9161 9.05592 20.9033 8.98773 20.8775 8.92404C20.8518 8.86034 20.8136 8.8024 20.7652 8.75358C20.7169 8.70477 20.6593 8.66605 20.5959 8.63968C20.5324 8.61331 20.4644 8.59981 20.3957 8.59998H18.8945C18.758 8.59965 18.627 8.65319 18.5298 8.74897C18.4327 8.84474 18.3772 8.975 18.3756 9.11142C18.3569 10.7146 18.2964 13.0373 19.2331 14.1781C20.141 15.2842 20.915 16.4893 21.5926 17.7509C22.5175 20.1848 20.093 23.1675 17.3455 22.8572C14.7367 22.5627 10.1765 22.622 9.91272 26.1605V30.8821C9.91278 30.9502 9.92628 31.0177 9.95243 31.0806C9.97859 31.1435 10.0169 31.2006 10.0651 31.2487C10.1134 31.2968 10.1707 31.335 10.2337 31.3609C10.2967 31.3869 10.3639 31.4001 10.4321 31.4Z" fill="white"/>
</svg>
