<svg width="41" height="40" viewBox="0 0 41 40" fill="none" xmlns="http://www.w3.org/2000/svg">
<rect x="0.666626" width="40" height="40" rx="6.66667" fill="#F59321"/>
<path fill-rule="evenodd" clip-rule="evenodd" d="M22.0161 20H19.3061L15.2661 23.67C14.1361 24.69 13.7661 26.26 14.3161 27.68C14.8661 29.09 16.2061 30 17.7161 30H23.6061C25.1261 30 26.4561 29.09 27.0061 27.68C27.5561 26.26 27.1861 24.69 26.0561 23.67L22.0161 20ZM18.8461 26.14C18.4661 26.14 18.1661 25.83 18.1661 25.46C18.1661 25.09 18.4761 24.78 18.8461 24.78H22.4861C22.8661 24.78 23.1661 25.09 23.1661 25.46C23.1661 25.83 22.8561 26.14 22.4861 26.14H18.8461Z" fill="white"/>
<path fill-rule="evenodd" clip-rule="evenodd" d="M23.6173 10H17.7173C16.2073 10 14.8673 10.91 14.3173 12.32C13.7773 13.74 14.1473 15.31 15.2773 16.33L19.3173 20H22.0273L26.0673 16.33C27.1873 15.31 27.5573 13.74 27.0173 12.32C26.4673 10.91 25.1273 10 23.6173 10ZM18.8473 15.23C18.4673 15.23 18.1673 14.92 18.1673 14.55C18.1673 14.18 18.4773 13.87 18.8473 13.87H22.4873C22.8673 13.87 23.1673 14.18 23.1673 14.55C23.1673 14.92 22.8573 15.23 22.4873 15.23H18.8473Z" fill="white"/>
</svg>
