<svg width="41" height="40" viewBox="0 0 41 40" fill="none" xmlns="http://www.w3.org/2000/svg">
<rect x="0.333374" width="40" height="40" rx="6.66667" fill="#F59321"/>
<path d="M28.7561 20.838C28.6781 20.8152 28.5944 20.837 28.5337 20.8911C27.2475 22.0378 25.5421 22.809 23.7617 23.1172C23.6449 23.1374 23.5583 23.2379 23.5583 23.3565V28.3288C23.5583 28.4614 23.6657 28.5688 23.7983 28.5688H27.6283C29.8036 28.5688 31.5834 26.7892 31.5834 24.6138C31.5834 22.8267 30.3924 21.3155 28.7561 20.838ZM20.2889 23.2954C19.9857 23.2954 19.6956 23.2295 19.4318 23.0976C19.0363 22.8999 18.7067 22.5835 18.5091 22.1748C18.3432 21.8101 18.2566 21.3167 18.2126 20.8868C18.1996 20.7592 18.0914 20.6606 17.9636 20.6713C15.8966 20.8452 14.3297 22.5726 14.3297 24.6138C14.3297 26.8308 16.1471 28.5688 18.2847 28.5688H21.9999C22.1325 28.5688 22.2399 28.4614 22.2399 28.3288V23.5504C22.2399 23.4073 22.1152 23.2942 21.9722 23.2952C21.9428 23.2954 21.9134 23.2954 21.884 23.2954H20.2889ZM21.4723 11.9965C21.6382 12.0646 21.6627 12.2855 21.5254 12.401C21.0673 12.7859 20.6487 13.2158 20.2757 13.6844C19.4154 14.7423 18.8011 15.9542 18.46 17.2382C18.4068 17.4383 18.145 17.4936 18.0328 17.3195C17.2501 16.1053 16.8215 14.6875 16.8215 13.1967V12.0892C16.8215 11.7199 17.1116 11.43 17.4806 11.43H18.5882C19.5882 11.43 20.5677 11.6248 21.4723 11.9965ZM29.5174 11.43H27.7508C25.2328 11.43 22.8859 12.5506 21.3039 14.5019C19.8468 16.321 19.2665 18.533 19.5218 20.6399C19.5451 20.8323 19.7757 20.9081 19.9128 20.7711C20.9281 19.7558 23.8984 16.7855 23.7826 16.9013C24.0197 16.6377 24.4681 16.6375 24.7054 16.9013C24.9691 17.1384 24.9692 17.5867 24.7054 17.8241C24.5845 17.9448 21.1472 21.3823 20.6164 21.9132C20.5713 21.9583 20.5885 21.9771 20.6521 21.9769C23.4798 21.9718 26.1037 21.7351 28.2914 19.1294C29.5176 17.6396 30.1768 15.807 30.1768 13.8559V12.0892C30.1766 11.7199 29.8868 11.43 29.5174 11.43Z" fill="white"/>
<path d="M14.5756 20.5195C14.6716 20.6169 14.6664 20.7743 14.5694 20.8705C13.6077 21.8237 13.0114 23.1484 13.0114 24.6137C13.0114 25.8625 13.4488 27.0567 14.2342 27.9868C14.3444 28.1174 14.3002 28.3215 14.1364 28.37C13.7804 28.4755 13.4104 28.5294 13.0378 28.5294C12.0225 28.5294 11.0049 28.1471 10.2401 27.3823C8.6978 25.8398 8.6978 23.3216 10.2401 21.7791L12.8799 19.1419C12.9742 19.0477 13.1271 19.0483 13.2206 19.1433L14.5756 20.5195ZM17.6193 18.9609C17.7548 19.1175 17.6551 19.3767 17.4506 19.4089C16.9427 19.489 16.4591 19.6432 16.0167 19.8549C15.9222 19.9001 15.8088 19.8832 15.7347 19.8091L14.1435 18.2179C14.0498 18.1241 14.0498 17.9722 14.1435 17.8785L15.6929 16.3291C15.8183 16.2036 16.0324 16.2528 16.0969 16.418C16.4577 17.3416 16.9652 18.205 17.6193 18.9609Z" fill="white"/>
</svg>
