<svg width="41" height="40" viewBox="0 0 41 40" fill="none" xmlns="http://www.w3.org/2000/svg">
<rect x="0.333374" width="40" height="40" rx="6.66667" fill="#F59321"/>
<path fill-rule="evenodd" clip-rule="evenodd" d="M30.1709 16.5914C29.859 16.2315 29.607 15.5596 29.607 15.0798V13.0403C29.607 11.7686 28.5633 10.7249 27.2916 10.7249H25.2521C24.7842 10.7249 24.1004 10.4729 23.7405 10.161L21.845 8.5294C21.0172 7.82158 19.6615 7.82158 18.8217 8.5294L16.9382 10.173C16.5783 10.4729 15.8945 10.7249 15.4266 10.7249H13.3511C12.0794 10.7249 11.0357 11.7686 11.0357 13.0403V15.0918C11.0357 15.5596 10.7837 16.2315 10.4838 16.5914L8.86422 18.4989C8.16839 19.3267 8.16839 20.6704 8.86422 21.4982L10.4838 23.4057C10.7837 23.7656 11.0357 24.4374 11.0357 24.9053V26.9568C11.0357 28.2285 12.0794 29.2722 13.3511 29.2722H15.4266C15.8945 29.2722 16.5783 29.5242 16.9382 29.8361L18.8337 31.4677C19.6615 32.1755 21.0172 32.1755 21.857 31.4677L23.7525 29.8361C24.1124 29.5242 24.7842 29.2722 25.2641 29.2722H27.3036C28.5753 29.2722 29.619 28.2285 29.619 26.9568V24.9173C29.619 24.4494 29.871 23.7656 30.1829 23.4057L31.8145 21.5102C32.5103 20.6824 32.5103 19.3147 31.8025 18.4869L30.1709 16.5914ZM24.5443 24.2695C24.3643 24.9773 23.6085 25.5531 22.8407 25.5531H20.6213C20.2374 25.5531 19.6975 25.4212 19.4576 25.1812L17.694 23.8016C17.658 24.5694 17.3101 24.8933 16.4583 24.8933H15.8825C14.9947 24.8933 14.6348 24.5454 14.6348 23.7056V17.971C14.6348 17.1313 14.9947 16.7833 15.8825 16.7833H16.4703C17.3581 16.7833 17.718 17.1313 17.718 17.971V18.4029L20.0454 14.9478C20.2854 14.5759 20.8972 14.312 21.4131 14.5159C21.9769 14.7079 22.3368 15.3317 22.2169 15.8836L21.9289 17.7551C21.905 17.9231 21.9409 18.079 22.0489 18.199C22.1449 18.307 22.2889 18.3789 22.4448 18.3789H24.7842C25.2401 18.3789 25.624 18.5589 25.852 18.8828C26.0559 19.1947 26.0919 19.5906 25.9479 19.9985L24.5443 24.2695Z" fill="white"/>
</svg>
