<svg width="48" height="48" viewBox="0 0 48 48" fill="none" xmlns="http://www.w3.org/2000/svg">
<rect width="48" height="48" rx="8" fill="#76A63F"/>
<path d="M23.9321 27.386C28.507 27.386 32.4135 28.1116 32.4135 31.0139C32.4133 33.9149 28.5319 34.6663 23.9321 34.6663C19.3572 34.6663 15.4508 33.9413 15.4506 31.0403C15.4506 28.1379 19.3321 27.386 23.9321 27.386ZM16.7543 25.6389C16.7805 25.6426 16.7939 25.6623 16.7963 25.6731C16.7997 25.6911 16.7923 25.7175 16.7592 25.7366C15.9498 26.1388 12.8254 27.8885 13.2182 31.5774C13.2347 31.738 13.1082 31.8744 12.9496 31.8518C12.1808 31.7413 10.2021 31.3142 9.58832 29.9827C9.24808 29.2778 9.24812 28.461 9.58832 27.7561C9.98946 26.8975 10.9571 26.3065 12.4291 26.0159C13.1255 25.8466 15.0045 25.6065 16.7543 25.6389ZM31.2465 25.6379C32.9954 25.6055 34.8757 25.8463 35.5707 26.0168C37.0427 26.3062 38.0113 26.8966 38.4125 27.7551C38.7516 28.46 38.7516 29.278 38.4125 29.9817C37.7989 31.3134 35.8201 31.7413 35.0512 31.8518C34.8927 31.8755 34.765 31.7369 34.7817 31.5774C35.1743 27.8874 32.0499 26.1379 31.2416 25.7356C31.2073 25.7176 31.2 25.6899 31.2036 25.6731C31.206 25.6611 31.2204 25.6416 31.2465 25.6379ZM23.9321 13.3333C27.0468 13.3333 29.5442 15.8428 29.5444 18.9768C29.5444 22.1097 27.0469 24.6223 23.9321 24.6223C20.8173 24.6223 18.3198 22.1097 18.3198 18.9768C18.3199 15.8429 20.8174 13.3333 23.9321 13.3333ZM16.4477 14.2747C16.7748 14.2747 17.0884 14.3089 17.394 14.3713C17.4345 14.381 17.4796 14.4018 17.5034 14.4377C17.5308 14.4834 17.5105 14.5446 17.4819 14.5842C16.5782 15.8582 16.0581 17.4118 16.058 19.0784C16.058 20.6754 16.5339 22.1638 17.3696 23.4006C17.4554 23.5278 17.3793 23.6992 17.228 23.7258C17.0178 23.7631 16.8021 23.7823 16.5825 23.7883C14.392 23.8458 12.4255 22.428 11.8823 20.2932C11.0764 17.122 13.4393 14.2748 16.4477 14.2747ZM31.5512 14.2747C34.5598 14.2747 36.9223 17.1219 36.1176 20.2932C35.5743 22.428 33.608 23.846 31.4174 23.7883C31.1978 23.7823 30.9818 23.7618 30.7729 23.7258C30.6214 23.6994 30.5446 23.5279 30.6303 23.4006C31.466 22.1638 31.9428 20.6754 31.9428 19.0784C31.9427 17.4119 31.4226 15.8581 30.519 14.5842C30.4903 14.5446 30.4688 14.4834 30.4975 14.4377C30.5214 14.4006 30.5652 14.3809 30.6069 14.3713C30.9113 14.3089 31.2241 14.2747 31.5512 14.2747Z" fill="white"/>
</svg>
