<svg width="48" height="48" viewBox="0 0 48 48" fill="none" xmlns="http://www.w3.org/2000/svg">
<rect width="48" height="48" rx="8" fill="#76A63F"/>
<path d="M37.3334 29.3334V30.6667C37.3334 32.8801 35.5467 34.6667 33.3334 34.6667C33.3334 32.4667 31.5334 30.6667 29.3334 30.6667C27.1334 30.6667 25.3334 32.4667 25.3334 34.6667H22.6667C22.6667 32.4667 20.8667 30.6667 18.6667 30.6667C16.4667 30.6667 14.6667 32.4667 14.6667 34.6667C12.4534 34.6667 10.6667 32.8801 10.6667 30.6667V28.0001C10.6667 27.2667 11.2667 26.6667 12 26.6667H24.6667C26.5067 26.6667 28 25.1734 28 23.3334V16.0001C28 15.2667 28.6 14.6667 29.3334 14.6667H30.4534C31.4134 14.6667 32.2934 15.1867 32.7734 16.0134L33.6267 17.5067C33.7467 17.7201 33.5867 18.0001 33.3334 18.0001C31.4934 18.0001 30 19.4934 30 21.3334V25.3334C30 27.1734 31.4934 28.6667 33.3334 28.6667H36.6667C37.04 28.6667 37.3334 28.9601 37.3334 29.3334Z" fill="white"/>
<path fill-rule="evenodd" clip-rule="evenodd" d="M18.6667 37.3333C17.1939 37.3333 16 36.1394 16 34.6667C16 33.1939 17.1939 32 18.6667 32C20.1394 32 21.3333 33.1939 21.3333 34.6667C21.3333 36.1394 20.1394 37.3333 18.6667 37.3333Z" fill="white"/>
<path fill-rule="evenodd" clip-rule="evenodd" d="M29.3334 37.3333C27.8606 37.3333 26.6667 36.1394 26.6667 34.6667C26.6667 33.1939 27.8606 32 29.3334 32C30.8061 32 32 33.1939 32 34.6667C32 36.1394 30.8061 37.3333 29.3334 37.3333Z" fill="white"/>
<path d="M37.3333 26.6667H33.3333C32.6 26.6667 32 26.0667 32 25.3333V21.3333C32 20.6 32.6 20 33.3333 20H35.0533L36.9867 23.3867C37.2133 23.7867 37.3333 24.24 37.3333 24.7067V26.6667Z" fill="white"/>
<path fill-rule="evenodd" clip-rule="evenodd" d="M15.5867 10.6667C12.8667 10.6667 10.6667 12.8667 10.6667 15.5867V24.0934C10.6667 24.8267 11.2667 25.4267 12 25.4267H24.2C25.56 25.4267 26.6667 24.3201 26.6667 22.9601V11.8934C26.6667 11.2134 26.12 10.6667 25.44 10.6667H15.5867ZM18.64 20.1201C18.44 20.3067 18.1867 20.4001 17.9467 20.4001C17.6934 20.4001 17.44 20.3067 17.2534 20.1201L15.9067 18.8401C15.5067 18.4534 15.4934 17.8134 15.88 17.4134C16.2534 17.0134 16.8934 17.0134 17.2934 17.3867L17.9467 18.0134L20.04 15.9867C20.44 15.6001 21.0667 15.6134 21.4534 16.0134C21.84 16.4134 21.8267 17.0401 21.4267 17.4267L18.64 20.1201Z" fill="white"/>
</svg>
