<svg width="48" height="48" viewBox="0 0 48 48" fill="none" xmlns="http://www.w3.org/2000/svg">
<rect width="48" height="48" rx="8" fill="#76A63F"/>
<path fill-rule="evenodd" clip-rule="evenodd" d="M13.3334 19.9999C13.3334 19.5866 13.3867 19.1733 13.4534 18.7733C13.3867 19.1733 13.3334 19.5733 13.3334 19.9999ZM13.4534 29.2266C13.3867 28.8266 13.3334 28.4133 13.3334 27.9999C13.3334 28.4266 13.3867 28.8266 13.4534 29.2266ZM20 34.6666C19.5867 34.6666 19.1867 34.6133 18.7867 34.5466C19.1734 34.6133 19.5867 34.6666 20 34.6666ZM20 13.3333C19.5867 13.3333 19.1734 13.3866 18.7867 13.4533C19.1867 13.3866 19.5867 13.3333 20 13.3333ZM28 13.3333C28.4134 13.3333 28.8267 13.3866 29.2267 13.4533C28.8267 13.3866 28.4267 13.3333 28 13.3333ZM34.6667 19.9999C34.6667 19.5733 34.6134 19.1733 34.5467 18.7733C34.6134 19.1733 34.6667 19.5866 34.6667 19.9999Z" fill="white"/>
<path d="M36.3333 20.0667H34.6666V22.5162C34.6666 22.961 34.1839 23.2379 33.8 23.0134C33.2266 22.6801 32.56 22.5734 31.92 22.7467C31.5094 22.8453 31.0133 22.58 31.0133 22.1578V20.9867C31.0133 18.7867 29.2133 16.9867 27.0133 16.9867H20.9866C18.7866 16.9867 16.9866 18.7867 16.9866 20.9867V27.0134C16.9866 29.2134 18.7866 31.0134 20.9866 31.0134H21.5866C21.7413 31.0134 21.8666 31.1388 21.8666 31.2934C21.8666 32.5781 22.7976 33.6583 24.0233 33.9065C24.2538 33.9531 24.4098 34.2288 24.3333 34.4512C24.2895 34.5784 24.1736 34.6667 24.0391 34.6667H20.08V36.3334C20.08 36.8801 19.6266 37.3334 19.08 37.3334C18.52 37.3334 18.08 36.8801 18.08 36.3334V34.3734C15.9466 33.7201 14.28 32.0534 13.64 29.9334H11.6666C11.12 29.9334 10.6666 29.4801 10.6666 28.9334C10.6666 28.3734 11.12 27.9334 11.6666 27.9334H13.3333V25.0001H11.6666C11.12 25.0001 10.6666 24.5467 10.6666 24.0001C10.6666 23.4401 11.12 23.0001 11.6666 23.0001H13.3333V20.0667H11.6666C11.12 20.0667 10.6666 19.6267 10.6666 19.0667C10.6666 18.5201 11.12 18.0667 11.6666 18.0667H13.64C14.28 15.9467 15.9466 14.2801 18.08 13.6267V11.6667C18.08 11.1201 18.52 10.6667 19.08 10.6667C19.6266 10.6667 20.08 11.1201 20.08 11.6667V13.3334H23V11.6667C23 11.1201 23.4533 10.6667 24 10.6667C24.5466 10.6667 25 11.1201 25 11.6667V13.3334H27.9333V11.6667C27.9333 11.1201 28.3866 10.6667 28.9333 10.6667C29.48 10.6667 29.9333 11.1201 29.9333 11.6667V13.6401C32.0533 14.2801 33.72 15.9467 34.36 18.0667H36.3333C36.8933 18.0667 37.3333 18.5201 37.3333 19.0667C37.3333 19.6267 36.8933 20.0667 36.3333 20.0667Z" fill="white"/>
<path fill-rule="evenodd" clip-rule="evenodd" d="M34.5606 27.5887C34.5606 27.322 34.6406 27.0153 34.8272 26.6953C35.2006 26.0553 34.9739 25.2287 34.3339 24.8687L33.1206 24.162C32.5606 23.8287 31.8406 24.0287 31.5072 24.5887L31.4272 24.722C30.7872 25.8287 29.7472 25.8287 29.1072 24.722L29.0272 24.5887C28.7072 24.0287 27.9739 23.8287 27.4272 24.162L26.2006 24.8687C25.7739 25.1087 25.5206 25.562 25.5206 26.0287C25.5206 26.2553 25.5872 26.482 25.7072 26.6953C25.8939 27.0153 25.9872 27.322 25.9872 27.5887C25.9872 28.2553 25.4539 28.7087 24.5472 28.7087C23.8139 28.7087 23.2006 29.3087 23.2006 30.042V31.2953C23.2006 32.0287 23.8139 32.6287 24.5472 32.6287C25.4539 32.6287 25.9872 33.082 25.9872 33.7487C25.9872 34.0153 25.8939 34.322 25.7072 34.642C25.3339 35.282 25.5606 36.1087 26.2006 36.4687L27.4272 37.1753C27.9739 37.5087 28.7072 37.3087 29.0272 36.7487L29.1072 36.6153C29.7472 35.5087 30.7872 35.5087 31.4272 36.6153L31.5072 36.7487C31.8406 37.3087 32.5606 37.5087 33.1206 37.1753L34.3339 36.4687C34.7606 36.2287 35.0139 35.7753 35.0139 35.3087C35.0139 35.082 34.9472 34.8553 34.8272 34.642C34.6406 34.322 34.5606 34.0153 34.5606 33.7487C34.5606 33.082 35.0806 32.6287 35.9872 32.6287C36.7339 32.6287 37.3339 32.0287 37.3339 31.2953V30.042C37.3339 29.3087 36.7339 28.7087 35.9872 28.7087C35.0806 28.7087 34.5606 28.2553 34.5606 27.5887ZM27.9739 30.6687C27.9739 29.402 29.0006 28.3753 30.2672 28.3753C31.5339 28.3753 32.5606 29.402 32.5606 30.6687C32.5606 31.9353 31.5339 32.962 30.2672 32.962C29.0006 32.962 27.9739 31.9353 27.9739 30.6687Z" fill="white"/>
<path d="M29.6667 22.1233C29.6667 22.5687 29.073 22.8511 28.64 22.7466C27.9734 22.5733 27.3067 22.6666 26.76 22.9999L25.5467 23.7066C24.7067 24.1733 24.1867 25.0666 24.1867 26.0266C24.1867 26.1061 24.19 26.186 24.1968 26.266C24.2404 26.781 23.8804 27.4059 23.4125 27.6253C22.769 27.9271 22.2639 28.4769 22.0221 29.1498C21.9186 29.4379 21.6662 29.6666 21.36 29.6666C19.68 29.6666 18.3334 28.3199 18.3334 26.6399V21.3599C18.3334 19.6799 19.68 18.3333 21.36 18.3333H26.64C28.32 18.3333 29.6667 19.6799 29.6667 21.3599V22.1233Z" fill="white"/>
</svg>
