<svg width="48" height="48" viewBox="0 0 48 48" fill="none" xmlns="http://www.w3.org/2000/svg">
<rect width="48" height="48" rx="8" fill="#76A63F"/>
<path fill-rule="evenodd" clip-rule="evenodd" d="M16.4276 11.2672C13.2409 9.70721 10.6276 11.2939 10.6276 14.7872V34.5739C10.6276 36.0939 11.8942 37.3339 13.4409 37.3339H23.3342C24.0676 37.3339 24.6676 36.7339 24.6676 36.0005V17.8805C24.6676 16.4805 23.6142 14.8139 22.3342 14.1872L16.4276 11.2672ZM15.3342 26.3339C14.7876 26.3339 14.3342 25.8805 14.3342 25.3339C14.3342 24.7872 14.7876 24.3339 15.3342 24.3339H19.9609C20.5076 24.3339 20.9609 24.7872 20.9609 25.3339C20.9609 25.8805 20.5209 26.3339 19.9609 26.3339H15.3342ZM15.3342 21.0005C14.7876 21.0005 14.3342 20.5472 14.3342 20.0005C14.3342 19.4539 14.7876 19.0005 15.3342 19.0005H19.9609C20.5076 19.0005 20.9609 19.4539 20.9609 20.0005C20.9609 20.5472 20.5209 21.0005 19.9609 21.0005H15.3342Z" fill="white"/>
<path d="M37.3333 33.9987C37.3333 35.8387 35.84 37.332 34 37.332H27.96C27.24 37.332 26.6666 36.7587 26.6666 36.0387V33.1587C28.0933 33.332 29.6 32.9187 30.68 32.052C31.5866 32.7853 32.7466 33.2253 34.0133 33.2253C35.2533 33.2253 36.4133 32.7853 37.3333 32.052V33.9987Z" fill="white"/>
<path d="M37.3333 28.0806C37.2266 29.8273 35.8 31.2273 34.0133 31.2273C32.16 31.2273 30.68 29.7206 30.68 27.8939C30.68 29.9339 28.8 31.5739 26.6666 31.1606V24.0006C26.6666 23.1473 27.4533 22.5073 28.2933 22.6939L30.68 23.2273L31.32 23.3739L34.04 23.9873C34.6933 24.1206 35.2933 24.3473 35.8133 24.6806C35.8133 24.6939 35.8266 24.6939 35.8266 24.6939C35.96 24.7873 36.0933 24.8939 36.2133 25.0139C36.8266 25.6273 37.2266 26.5206 37.32 27.8273C37.32 27.9073 37.3333 27.9873 37.3333 28.0673V28.0806Z" fill="white"/>
</svg>
