<svg width="48" height="48" viewBox="0 0 48 48" fill="none" xmlns="http://www.w3.org/2000/svg">
<rect width="48" height="48" rx="8" fill="#F59321"/>
<path d="M24.6777 24.3752C24.2643 24.6152 23.7443 24.6152 23.3177 24.3752L13.051 18.4285C12.3177 18.0019 12.131 17.0019 12.691 16.3752C13.0777 15.9352 13.5177 15.5752 13.9843 15.3219L21.211 11.3219C22.7577 10.4552 25.2643 10.4552 26.811 11.3219L34.0377 15.3219C34.5043 15.5752 34.9443 15.9485 35.331 16.3752C35.8643 17.0019 35.6777 18.0019 34.9443 18.4285L24.6777 24.3752Z" fill="white"/>
<path d="M23.2406 35.9452C23.2406 36.9586 22.2139 37.6252 21.3073 37.1852C18.5606 35.8386 13.9339 33.3186 13.9339 33.3186C12.3073 32.3986 10.9739 30.0786 10.9739 28.1719V21.2919C10.9739 20.2386 12.0806 19.5719 12.9873 20.0919L22.5739 25.6519C22.9739 25.9052 23.2406 26.3586 23.2406 26.8519V35.9452Z" fill="white"/>
<path d="M24.7604 35.9452C24.7604 36.9586 25.7871 37.6252 26.6938 37.1852C29.4404 35.8386 34.0671 33.3186 34.0671 33.3186C35.6938 32.3986 37.0271 30.0786 37.0271 28.1719V21.2919C37.0271 20.2386 35.9204 19.5719 35.0138 20.0919L25.4271 25.6519C25.0271 25.9052 24.7604 26.3586 24.7604 26.8519V35.9452Z" fill="white"/>
</svg>
