<svg width="49" height="48" viewBox="0 0 49 48" fill="none" xmlns="http://www.w3.org/2000/svg">
<rect x="0.5" width="48" height="48" rx="8" fill="#F59321"/>
<path d="M29.0298 17.628C29.3317 18.2523 30.1404 18.8735 30.8269 18.9887L34.91 19.7274C37.5245 20.1947 38.1025 22.0994 36.2055 23.9593L32.9746 27.1092C32.4351 27.6372 32.1134 28.6827 32.2789 29.4211L33.1375 33.3813C33.8122 36.5078 32.1437 37.6985 29.4146 36.0333L25.6022 33.7068C24.908 33.2816 23.769 33.2765 23.0737 33.6743L19.2052 35.8919C16.436 37.4767 14.7947 36.2463 15.5513 33.141L16.5175 29.2116C16.698 28.4771 16.4173 27.4233 15.8894 26.8839L12.7215 23.6471C10.8735 21.7441 11.5002 19.856 14.1214 19.4527L18.2142 18.8259C18.9053 18.7144 19.7306 18.131 20.0429 17.509L22.3653 13.0109C23.6328 10.5883 25.6365 10.618 26.826 13.0795L29.0298 17.628Z" fill="white"/>
</svg>
