<svg width="57" height="48" viewBox="0 0 57 48" fill="none" xmlns="http://www.w3.org/2000/svg">
<path d="M51.8758 24C51.8758 37.255 41.2035 48 28.0381 48C14.8741 48 4.20186 37.255 4.20186 24C4.20186 10.745 14.8741 0 28.0381 0C41.2035 0 51.8758 10.745 51.8758 24Z" fill="#F1F4E5"/>
<mask id="mask0_21_6" style="mask-type:alpha" maskUnits="userSpaceOnUse" x="0" y="0" width="57" height="48">
<path d="M56.9562 24C56.9562 26.6573 51.4469 29.2137 50.6549 31.6029C47.4966 41.1314 38.5642 48 28.0381 48C17.5131 48 8.58101 41.1314 5.42269 31.6029C4.63077 29.2137 0.583473 26.6573 0.583473 24C0.583473 10.745 14.8741 0 28.0381 0C41.2035 0 56.9562 10.745 56.9562 24Z" fill="#F1F4E5"/>
</mask>
<g mask="url(#mask0_21_6)">
<path d="M29.7049 9.70757C29.2823 8.14071 28.2333 6.92356 27.8682 5.45584C27.752 4.82386 27.9299 4.04869 27.9299 4.04869C27.945 3.96608 27.9531 3.87521 27.9531 3.77883C27.9558 3.42497 27.8532 3.13721 27.726 3.13721C27.5974 3.13584 27.4923 3.42223 27.4895 3.77609C27.4895 3.87247 27.4963 3.96334 27.5099 4.04595C27.5099 4.04595 27.6769 4.82111 27.5525 5.45034C27.1668 6.91394 26.1014 8.11869 25.657 9.68005C25.1701 11.3915 25.4258 15.0594 27.5592 15.0746L27.7302 15.076C29.8635 15.0897 30.1685 11.4245 29.7049 9.70757Z" fill="#F59321"/>
<path d="M33.0344 16.916C33.8358 15.5074 33.9479 13.9006 34.7206 12.6023C35.0816 12.0722 35.753 11.6509 35.753 11.6509C35.82 11.6027 35.8912 11.5448 35.9582 11.4774C36.2085 11.2282 36.3384 10.9528 36.2495 10.8605C36.1593 10.7683 35.883 10.8963 35.6341 11.1442C35.5644 11.213 35.507 11.2819 35.4577 11.3493C35.4577 11.3493 35.031 12.0171 34.5004 12.3751C33.1998 13.1337 31.6013 13.2274 30.1913 14.0149C28.6447 14.8768 26.2487 17.654 27.7461 19.1837L27.8679 19.3062C29.3654 20.8359 32.1551 18.4608 33.0344 16.916Z" fill="#F59321"/>
<path d="M22.2696 16.8422C21.4874 15.4226 21.3958 13.8131 20.6422 12.5051C20.2867 11.9708 19.6219 11.5399 19.6219 11.5399L19.6234 11.5385C19.555 11.4903 19.4866 11.4311 19.4182 11.3623C19.172 11.1103 19.0462 10.8322 19.1365 10.7427C19.2281 10.6532 19.503 10.7826 19.7491 11.0346C19.8161 11.1048 19.8735 11.175 19.9214 11.2439C19.9214 11.2439 20.3386 11.9144 20.8637 12.2806C22.1547 13.0586 23.752 13.1728 25.151 13.9797C26.6868 14.8636 29.0429 17.6738 27.5249 19.1814L27.4034 19.3026C25.884 20.8103 23.127 18.398 22.2696 16.8422Z" fill="#F9AE42"/>
<path d="M32.9885 23.6108C33.7899 22.2023 33.9034 20.5941 34.6747 19.2957C35.0371 18.767 35.7073 18.3457 35.7073 18.3457C35.7756 18.2989 35.8453 18.2396 35.9123 18.1708C36.1639 17.9243 36.2939 17.6462 36.2036 17.5554C36.1133 17.4631 35.8371 17.5912 35.5882 17.839C35.5198 17.9078 35.4611 17.9767 35.4133 18.0455L35.4118 18.0442C35.4118 18.0442 34.9866 18.7119 34.4547 19.0685C33.1555 19.8285 31.5567 19.9208 30.1454 20.7084C28.6001 21.5716 26.2028 24.3488 27.7017 25.8771L27.822 26.001C29.3195 27.5293 32.1105 25.1556 32.9885 23.6108Z" fill="#F9AE42"/>
<path d="M22.2237 23.5369C21.4415 22.1174 21.3499 20.5078 20.5963 19.1984C20.2408 18.6656 19.5775 18.2346 19.5775 18.2346C19.5105 18.1864 19.4407 18.1258 19.3737 18.057C19.1262 17.805 19.0003 17.5283 19.0906 17.4374C19.1822 17.3465 19.4571 17.4787 19.7032 17.7293C19.7702 17.7995 19.8278 17.8684 19.8757 17.9386C19.8757 17.9386 20.294 18.6105 20.8178 18.9753C22.1088 19.7519 23.7061 19.8676 25.1051 20.6744C26.6409 21.5583 28.9986 24.3685 27.4792 25.8762L27.3575 25.9987C25.8395 27.505 23.0798 25.0927 22.2237 23.5369Z" fill="#F59321"/>
<path d="M32.9432 30.3053C33.7445 28.8967 33.858 27.2886 34.6293 25.9902C34.9917 25.4615 35.6617 25.0388 35.6617 25.0388C35.7288 24.9906 35.7999 24.9342 35.8669 24.8653C36.1172 24.6175 36.2485 24.3407 36.1583 24.2498C36.068 24.1576 35.7918 24.2843 35.5429 24.5335C35.4745 24.601 35.4157 24.6712 35.3665 24.7386C35.3665 24.7386 34.9397 25.4051 34.4091 25.763C33.1086 26.5231 31.5114 26.6153 30.1001 27.4029C28.5534 28.2662 26.1573 31.0433 27.6561 32.5716L27.7765 32.6941C29.2739 34.2238 32.0652 31.8487 32.9432 30.3053Z" fill="#F59321"/>
<path d="M22.1783 30.2308C21.3974 28.8113 21.3042 27.2031 20.5507 25.8937C20.1951 25.3595 19.5306 24.9285 19.5306 24.9285C19.4636 24.879 19.3952 24.8211 19.3268 24.7523C19.0807 24.5003 18.9549 24.2222 19.0451 24.1313C19.1368 24.0418 19.4116 24.1713 19.6578 24.4246C19.7248 24.4935 19.7822 24.5637 19.83 24.6325C19.83 24.6325 20.2471 25.3044 20.7736 25.6693C22.0632 26.4472 23.6605 26.5615 25.0595 27.3683C26.5953 28.2523 28.9529 31.0624 27.4336 32.5701L27.312 32.6913C25.7927 34.1989 23.0357 31.788 22.1783 30.2308Z" fill="#F9AE42"/>
<path d="M32.8972 36.9995C33.6986 35.5896 33.8119 33.9841 34.5846 32.6844C34.9456 32.1543 35.6158 31.7344 35.6158 31.7344C35.6841 31.6862 35.7538 31.6283 35.8222 31.5595C36.0725 31.3117 36.2025 31.0363 36.1123 30.944C36.022 30.8518 35.7456 30.9799 35.4967 31.2263C35.4283 31.2952 35.3696 31.3654 35.3217 31.4328C35.3217 31.4328 34.8936 32.0992 34.3644 32.4572C33.0638 33.2172 31.4652 33.3095 30.0539 34.097C28.5072 34.9603 26.1127 37.7375 27.6102 39.2658L27.7305 39.3897C29.2279 40.918 32.0192 38.5443 32.8972 36.9995Z" fill="#F9AE42"/>
<path d="M22.1324 36.9243C21.3502 35.5062 21.2586 33.8966 20.505 32.5886C20.1495 32.053 19.4864 31.6221 19.4864 31.6221C19.418 31.5739 19.3494 31.5146 19.2824 31.4458C19.0349 31.1938 18.9092 30.9157 18.9995 30.8262C19.0911 30.7354 19.366 30.8662 19.6121 31.1181C19.6791 31.187 19.7365 31.2572 19.7844 31.326C19.7844 31.326 20.2029 31.9993 20.7267 32.3628C22.0177 33.1407 23.6149 33.2564 25.0153 34.0618C26.5497 34.9472 28.9059 37.7573 27.3879 39.2636L27.2664 39.3862C25.7484 40.8938 22.9898 38.4816 22.1324 36.9243Z" fill="#F59321"/>
<path d="M32.8523 43.6944C33.6536 42.2845 33.7671 40.6777 34.5384 39.3793C34.9008 38.8506 35.5696 38.4293 35.5696 38.4293C35.638 38.3798 35.7089 38.3233 35.7773 38.2545C36.0262 38.0066 36.1563 37.7313 36.0674 37.639C35.9771 37.5468 35.7008 37.6734 35.4505 37.9226C35.3835 37.9915 35.3248 38.0603 35.2756 38.1278C35.2756 38.1278 34.8489 38.7942 34.3197 39.1508C33.0178 39.9108 31.4203 40.0031 30.009 40.792C28.4623 41.6553 26.0664 44.4324 27.5652 45.9607L27.6856 46.0846C29.183 47.6116 31.9729 45.2392 32.8523 43.6944Z" fill="#F59321"/>
<path d="M22.0868 43.6187C21.3059 42.2005 21.2129 40.591 20.4594 39.2816C20.1052 38.7473 19.4408 38.3164 19.4408 38.3164C19.3737 38.2668 19.3038 38.209 19.2368 38.1402C18.9907 37.8882 18.8636 37.6101 18.9538 37.5206C19.0455 37.4297 19.3203 37.5605 19.5665 37.8125C19.6335 37.8813 19.6909 37.9516 19.7387 38.0204C19.7387 38.0204 20.1572 38.6923 20.6823 39.0571C21.9719 39.8351 23.5707 39.9493 24.9697 40.7576C26.5041 41.6401 28.8617 44.4503 27.3423 45.9593L27.2207 46.0805C25.7028 47.5882 22.9442 45.1759 22.0868 43.6187Z" fill="#F9AE42"/>
<mask id="mask1_21_6" style="mask-type:luminance" maskUnits="userSpaceOnUse" x="-1" y="2" width="58" height="46">
<path d="M-0.313093 24.7488C-0.707381 27.0181 8.75247 35.469 8.75247 36.8748C8.75247 44.3745 20.9153 47.9998 27.9158 47.9998C35.2322 48.0012 45.4397 45.4265 45.4397 37.9281C45.4397 35.6811 57.3058 22.9644 56.3472 18.9164C54.1044 9.45055 32.9648 2.5415 27.749 2.5415C21.6962 2.5415 1.39361 14.9263 -0.313093 24.7488Z" fill="white"/>
</mask>
<g mask="url(#mask1_21_6)">
<path d="M27.3533 58.1168C27.2015 58.1168 27.0786 57.9915 27.0799 57.8386L27.4177 8.18229C27.4191 8.03221 27.5407 7.90967 27.6911 7.90967C27.8429 7.90967 27.9661 8.03496 27.9647 8.18779L27.6269 57.8428C27.6255 57.9942 27.5037 58.1168 27.3533 58.1168Z" fill="#F59321"/>
<path d="M1.99896 24.9214C1.99896 24.9214 43.1293 20.1396 25.6944 77.3301L23.5558 76.9831C23.5558 76.9831 31.5598 35.6485 1.99896 24.9214Z" fill="#D3DB25"/>
<path d="M55.4877 19.5435C55.4877 19.5435 14.3574 14.7616 31.7922 71.9522L33.9311 71.6052C33.9311 71.6052 25.9268 30.2706 55.4877 19.5435Z" fill="#808C38"/>
</g>
</g>
</svg>
