<svg width="41" height="40" viewBox="0 0 41 40" fill="none" xmlns="http://www.w3.org/2000/svg">
<rect x="0.333374" width="40" height="40" rx="6.66667" fill="#F59321"/>
<g clip-path="url(#clip0_199_28)">
<path d="M21.5638 13.4279C21.5638 12.8756 21.1161 12.4279 20.5638 12.4279H20.1029C19.5506 12.4279 19.1029 12.8756 19.1029 13.4279V16.0721C19.1029 16.2476 19.0567 16.4201 18.9689 16.5721L17.516 19.0888C17.3056 19.4533 17.5038 19.9334 17.8879 20.1055C18.2137 20.2513 18.4705 20.3666 19.0401 20.3666C19.6091 20.3666 19.8665 20.2513 20.1918 20.1055C20.5738 19.9344 21.0487 19.7221 21.9187 19.7221C22.7887 19.7221 23.2635 19.9344 23.6455 20.1055C23.6848 20.123 23.7231 20.0803 23.7016 20.0431L21.6978 16.5721C21.61 16.4201 21.5638 16.2476 21.5638 16.0721V13.4279ZM21.9187 21.1283C21.3491 21.1283 21.0923 21.2432 20.7665 21.389C20.3849 21.56 19.9096 21.7729 19.0401 21.7729C18.1701 21.7729 17.6952 21.56 17.3132 21.389C17.1843 21.3313 17.0662 21.2784 16.9352 21.2356C16.5794 21.1192 16.2187 21.3358 16.0315 21.6601L14.7693 23.8466C14.4665 24.3711 14.4665 24.9979 14.7693 25.5224C15.0721 26.0469 15.6144 26.36 16.2201 26.36H24.4466C25.0523 26.36 25.5946 26.0469 25.8974 25.5224C26.2002 24.9979 26.2002 24.3711 25.8974 23.8466L24.9821 22.261C24.8069 21.9575 24.4836 21.7786 24.1372 21.7259C23.6618 21.6536 23.3426 21.5108 23.0708 21.389C22.7451 21.2432 22.4882 21.1283 21.9187 21.1283Z" fill="white"/>
<path d="M13.5515 23.1434L17.5627 16.1952C17.6505 16.0432 17.6967 15.8707 17.6967 15.6952V12.0216C17.6967 11.4693 18.1444 11.0216 18.6967 11.0216H21.9701C22.5224 11.0216 22.9701 11.4693 22.9701 12.0216V15.9124C22.9701 15.9456 22.9788 15.9783 22.9954 16.007C23.0576 16.1147 23.205 16.1341 23.293 16.0462L27.5584 11.7807C27.9649 11.3743 27.9478 10.706 27.487 10.3625C25.4302 8.82895 22.9456 8 20.3334 8C17.1281 8 14.1145 9.24828 11.8481 11.5147C9.58166 13.7811 8.33337 16.7947 8.33337 20C8.33337 22.6122 9.1623 25.0968 10.6958 27.1536C11.0394 27.6144 11.7077 27.6314 12.1141 27.2249L12.9161 26.4227C13.2095 26.1292 13.275 25.6872 13.1931 25.2804C13.0484 24.5607 13.1677 23.8075 13.5515 23.1434ZM29.9709 12.8464C29.6274 12.3855 28.9591 12.3685 28.5527 12.775L24.3892 16.9389C24.0692 17.2589 24.004 17.7539 24.2302 18.1459L27.1152 23.1434C27.6726 24.1081 27.6726 25.2603 27.1152 26.2255C26.5584 27.1902 25.5604 27.7663 24.4467 27.7663H16.2201C15.8041 27.7663 15.4042 27.6858 15.0373 27.5347C14.5603 27.3383 13.9815 27.3465 13.6167 27.7112L13.1085 28.2193C12.702 28.6257 12.719 29.294 13.1798 29.6376C15.2366 31.1711 17.7212 32 20.3334 32C23.5387 32 26.5523 30.7517 28.8187 28.4853C31.0851 26.2189 32.3334 23.2053 32.3334 20C32.3334 17.3878 31.5044 14.9032 29.9709 12.8464Z" fill="white"/>
</g>
<defs>
<clipPath id="clip0_199_28">
<rect width="24" height="24" fill="white" transform="translate(8.33337 8)"/>
</clipPath>
</defs>
</svg>
