<svg width="40" height="40" viewBox="0 0 40 40" fill="none" xmlns="http://www.w3.org/2000/svg">
<rect width="40" height="40" rx="6.66667" fill="#F59321"/>
<path fill-rule="evenodd" clip-rule="evenodd" d="M21.395 9.32399C20.9609 9.1106 20.4837 8.99963 20 8.99963C19.5163 8.99963 19.0391 9.1106 18.605 9.32399L9.85299 13.634C8.71599 14.194 8.71599 15.807 9.85299 16.367L18.605 20.676C19.039 20.8895 19.5163 21.0005 20 21.0005C20.4837 21.0005 20.9609 20.8895 21.395 20.676L30.147 16.366C31.284 15.806 31.284 14.193 30.147 13.633L21.395 9.32399ZM9.90299 18.61C9.97173 18.5761 10.0473 18.5585 10.124 18.5585C10.2006 18.5585 10.2762 18.5761 10.345 18.61L18.605 22.677C19.0391 22.8904 19.5163 23.0013 20 23.0013C20.4837 23.0013 20.9609 22.8904 21.395 22.677L29.655 18.61C29.7237 18.5761 29.7993 18.5585 29.876 18.5585C29.9526 18.5585 30.0282 18.5761 30.097 18.61L30.147 18.634C31.284 19.194 31.284 20.808 30.147 21.367L21.395 25.677C20.9609 25.8904 20.4837 26.0013 20 26.0013C19.5163 26.0013 19.0391 25.8904 18.605 25.677L9.85299 21.367C8.71599 20.807 8.71599 19.194 9.85299 18.634L9.90299 18.61ZM10.345 23.61C10.2762 23.5761 10.2006 23.5585 10.124 23.5585C10.0473 23.5585 9.97173 23.5761 9.90299 23.61L9.85299 23.635C8.71599 24.195 8.71599 25.808 9.85299 26.368L18.605 30.677C19.0391 30.8904 19.5163 31.0013 20 31.0013C20.4837 31.0013 20.9609 30.8904 21.395 30.677L30.147 26.367C31.284 25.807 31.284 24.194 30.147 23.634L30.097 23.61C30.0282 23.5761 29.9526 23.5585 29.876 23.5585C29.7993 23.5585 29.7237 23.5761 29.655 23.61L21.395 27.677C20.9609 27.8904 20.4837 28.0013 20 28.0013C19.5163 28.0013 19.0391 27.8904 18.605 27.677L10.345 23.61Z" fill="white"/>
</svg>
