<svg width="40" height="40" viewBox="0 0 40 40" fill="none" xmlns="http://www.w3.org/2000/svg">
<rect x="-1.52588e-05" width="40" height="40" rx="6.66667" fill="#F59321"/>
<path d="M28.3643 27.5553C27.9573 27.6543 27.6382 27.9624 27.5502 28.3694L27.1651 29.9867C26.9561 30.8669 25.8339 31.142 25.2508 30.4488L21.9611 26.6641C21.6971 26.3561 21.8401 25.872 22.2362 25.773C24.1836 25.2999 25.9329 24.2107 27.2201 22.6594C27.4292 22.4063 27.8032 22.3733 28.0343 22.6044L30.4767 25.0468C31.3129 25.883 31.0158 26.9282 30.1797 27.1262L28.3643 27.5553Z" fill="white"/>
<path d="M11.5851 27.5553C11.9921 27.6543 12.3112 27.9624 12.3992 28.3694L12.7843 29.9867C12.9933 30.8669 14.1155 31.142 14.6986 30.4488L17.9883 26.6641C18.2523 26.3561 18.1093 25.872 17.7132 25.773C15.7658 25.2999 14.0165 24.2107 12.7293 22.6594C12.5202 22.4063 12.1462 22.3733 11.9151 22.6044L9.47268 25.0468C8.63652 25.883 8.93358 26.9282 9.76973 27.1262L11.5851 27.5553Z" fill="white"/>
<path fill-rule="evenodd" clip-rule="evenodd" d="M12.3011 16.7072C12.3011 18.3025 12.7742 19.7657 13.5883 20.987C14.7766 22.7473 16.6579 23.9905 18.8473 24.3096C19.2214 24.3756 19.6064 24.4086 20.0025 24.4086C20.3986 24.4086 20.7837 24.3756 21.1577 24.3096C23.3471 23.9905 25.2285 22.7473 26.4167 20.987C27.2309 19.7657 27.7039 18.3025 27.7039 16.7072C27.7039 12.4494 24.2603 9.00574 20.0025 9.00574C15.7447 9.00574 12.3011 12.4494 12.3011 16.7072ZM22.456 17.3783C22.3019 17.5323 22.2139 17.8294 22.2689 18.0494L22.533 19.1826C22.742 20.0738 22.2689 20.4258 21.4768 19.9528L20.3766 19.3036C20.1786 19.1826 19.8485 19.1826 19.6505 19.3036L18.5503 19.9528C17.7581 20.4148 17.285 20.0738 17.4941 19.1826L17.7581 18.0494C17.8021 17.8404 17.7251 17.5323 17.5711 17.3783L16.6359 16.4651C16.0968 15.926 16.2728 15.3869 17.021 15.2659L18.1982 15.0679C18.3962 15.0349 18.6273 14.8588 18.7153 14.6828L19.3644 13.3845C19.7165 12.6804 20.2886 12.6804 20.6406 13.3845L21.2898 14.6828C21.3778 14.8588 21.6088 15.0349 21.8179 15.0679L22.9951 15.2659C23.7322 15.3869 23.9082 15.926 23.3691 16.4651L22.456 17.3783Z" fill="white"/>
</svg>
