<svg width="41" height="40" viewBox="0 0 41 40" fill="none" xmlns="http://www.w3.org/2000/svg">
<rect x="0.666656" width="40" height="40" rx="6.66667" fill="#F59321"/>
<path fill-rule="evenodd" clip-rule="evenodd" d="M17.1133 16.7866H16.22V17.68C16.2217 18.4815 16.5414 19.2497 17.1088 19.8158C17.6762 20.382 18.4451 20.7 19.2466 20.7H20.1333V19.8133C20.1333 19.0117 19.8153 18.2429 19.2492 17.6755C18.683 17.108 17.9149 16.7884 17.1133 16.7866ZM22.0866 17.6733C21.8047 17.9536 21.5811 18.2871 21.4289 18.6545C21.2767 19.0218 21.1989 19.4157 21.2 19.8133V20.7H22.0866C22.8882 20.7 23.657 20.382 24.2245 19.8158C24.7919 19.2497 25.1115 18.4815 25.1133 17.68V16.7866H24.22C23.8235 16.7865 23.4309 16.8647 23.0647 17.0169C22.6986 17.169 22.3662 17.3921 22.0866 17.6733Z" fill="white"/>
<path fill-rule="evenodd" clip-rule="evenodd" d="M20.6666 9.33337C18.557 9.33337 16.4947 9.95896 14.7406 11.131C12.9864 12.3031 11.6193 13.969 10.8119 15.9181C10.0046 17.8672 9.79336 20.0119 10.2049 22.081C10.6165 24.1501 11.6324 26.0508 13.1242 27.5425C14.6159 29.0343 16.5165 30.0502 18.5857 30.4618C20.6548 30.8733 22.7995 30.6621 24.7486 29.8548C26.6977 29.0474 28.3636 27.6802 29.5357 25.9261C30.7077 24.172 31.3333 22.1097 31.3333 20C31.3333 17.1711 30.2095 14.458 28.2091 12.4576C26.2087 10.4572 23.4956 9.33337 20.6666 9.33337ZM26.18 17.68C26.1765 18.764 25.7438 19.8024 24.9768 20.5682C24.2097 21.334 23.1706 21.765 22.0866 21.7667H21.2V24.2534H22.8C22.9414 24.2534 23.0771 24.3096 23.1771 24.4096C23.2771 24.5096 23.3333 24.6453 23.3333 24.7867C23.3333 24.9282 23.2771 25.0638 23.1771 25.1638C23.0771 25.2639 22.9414 25.32 22.8 25.32H18.5333C18.3919 25.32 18.2562 25.2639 18.1562 25.1638C18.0562 25.0638 18 24.9282 18 24.7867C18 24.6453 18.0562 24.5096 18.1562 24.4096C18.2562 24.3096 18.3919 24.2534 18.5333 24.2534H20.1333V21.7667H19.2466C18.7094 21.7676 18.1773 21.6625 17.6807 21.4575C17.1841 21.2526 16.7328 20.9517 16.3526 20.5721C15.9724 20.1925 15.6708 19.7417 15.465 19.2455C15.2592 18.7492 15.1533 18.2173 15.1533 17.68V16.2534C15.1533 16.1119 15.2095 15.9763 15.3095 15.8763C15.4095 15.7762 15.5452 15.72 15.6866 15.72H17.1133C17.6499 15.7194 18.1813 15.8251 18.6768 16.0311C19.1722 16.237 19.622 16.5392 20 16.92C20.2613 17.1767 20.4856 17.4683 20.6666 17.7867C20.8476 17.4683 21.072 17.1767 21.3333 16.92C21.7113 16.5392 22.161 16.237 22.6565 16.0311C23.152 15.8251 23.6834 15.7194 24.22 15.72H25.6466C25.7881 15.72 25.9237 15.7762 26.0238 15.8763C26.1238 15.9763 26.18 16.1119 26.18 16.2534V17.68Z" fill="white"/>
</svg>
