<svg width="41" height="40" viewBox="0 0 41 40" fill="none" xmlns="http://www.w3.org/2000/svg">
<rect x="0.666656" width="40" height="40" rx="6.66667" fill="#F59321"/>
<path d="M18.1921 24.826L14.5001 24.8195L16.0881 22.0695L16.9381 22.561C17.0271 22.6123 17.1298 22.635 17.2322 22.6259C17.3346 22.6168 17.4316 22.5764 17.5102 22.5102C17.5888 22.444 17.645 22.3551 17.6713 22.2558C17.6976 22.1565 17.6927 22.0514 17.6571 21.955L16.3266 18.3335C16.2862 18.2237 16.2086 18.1316 16.1073 18.0731C16.006 18.0146 15.8874 17.9935 15.7721 18.0135L11.9721 18.6705C11.8709 18.688 11.7776 18.7363 11.7048 18.8087C11.632 18.8812 11.5832 18.9743 11.5652 19.0754C11.5472 19.1765 11.5607 19.2807 11.604 19.3739C11.6473 19.467 11.7182 19.5446 11.8071 19.596L12.6571 20.087L10.6371 23.587C10.3337 24.113 10.1738 24.7095 10.1736 25.3167C10.1734 25.924 10.3328 26.5206 10.6359 27.0468C10.9389 27.573 11.375 28.0103 11.9004 28.3149C12.4257 28.6194 13.0219 28.7805 13.6291 28.782L18.1886 28.79C18.4538 28.79 18.7082 28.6846 18.8957 28.4971C19.0833 28.3096 19.1886 28.0552 19.1886 27.79V25.826C19.1886 25.5614 19.0838 25.3076 18.897 25.1201C18.7102 24.9327 18.4567 24.8269 18.1921 24.826ZM30.6946 23.605L28.4126 19.668C28.2798 19.4388 28.0614 19.2718 27.8055 19.2034C27.5496 19.1351 27.277 19.1711 27.0476 19.3035L25.3476 20.2855C25.2338 20.3512 25.1339 20.4387 25.0539 20.543C24.9739 20.6474 24.9152 20.7664 24.8813 20.8934C24.8473 21.0205 24.8388 21.1529 24.8561 21.2833C24.8734 21.4136 24.9162 21.5392 24.9821 21.653L26.8321 24.8405L23.6366 24.835V23.86C23.6367 23.7572 23.6051 23.6568 23.546 23.5726C23.487 23.4884 23.4034 23.4244 23.3067 23.3894C23.21 23.3545 23.1049 23.3501 23.0056 23.3771C22.9064 23.404 22.8179 23.4609 22.7521 23.54L20.2821 26.504C20.2072 26.5939 20.1661 26.7072 20.1661 26.8242C20.1661 26.9413 20.2072 27.0546 20.2821 27.1445L22.7521 30.1085C22.8179 30.1876 22.9064 30.2445 23.0056 30.2714C23.1049 30.2983 23.21 30.294 23.3067 30.259C23.4034 30.2241 23.487 30.1601 23.546 30.0759C23.6051 29.9917 23.6367 29.8913 23.6366 29.7885V28.8L27.6916 28.807H27.6986C28.3075 28.8109 28.9064 28.6525 29.4337 28.3481C29.961 28.0437 30.3976 27.6042 30.6986 27.075C31.0065 26.5486 31.1686 25.9497 31.1682 25.3399C31.1677 24.7301 31.0048 24.1314 30.6961 23.6055L30.6946 23.605ZM15.7446 16.737L17.4446 17.7185C17.5585 17.7842 17.6843 17.8268 17.8147 17.8438C17.9451 17.8609 18.0776 17.852 18.2046 17.8178C18.3315 17.7836 18.4505 17.7246 18.5547 17.6444C18.6589 17.5641 18.7462 17.4641 18.8116 17.35L20.6466 14.172L22.2466 16.9375L21.4111 17.4195C21.3222 17.4709 21.2513 17.5485 21.208 17.6416C21.1647 17.7348 21.1512 17.839 21.1692 17.9401C21.1872 18.0412 21.236 18.1343 21.3088 18.2068C21.3816 18.2792 21.4749 18.3275 21.5761 18.345L25.3761 19.002C25.4044 19.007 25.433 19.0095 25.4616 19.0095C25.5639 19.0094 25.6637 18.978 25.7476 18.9194C25.8315 18.8609 25.8953 18.778 25.9306 18.682L27.2666 15.0635C27.302 14.9671 27.3068 14.8621 27.2805 14.7629C27.2541 14.6636 27.1979 14.5749 27.1193 14.5088C27.0408 14.4426 26.9438 14.4023 26.8415 14.3932C26.7392 14.3841 26.6366 14.4067 26.5476 14.458L25.6821 14.958L23.6426 11.439C23.3406 10.911 22.9036 10.4728 22.3764 10.1692C21.8493 9.86566 21.2509 9.70769 20.6426 9.71149C20.0344 9.70862 19.4363 9.8675 18.9097 10.1718C18.3831 10.4762 17.9468 10.9151 17.6456 11.4435L15.3781 15.3705C15.3124 15.4843 15.2698 15.6099 15.2526 15.7401C15.2355 15.8704 15.2442 16.0028 15.2782 16.1297C15.3122 16.2566 15.371 16.3756 15.451 16.4798C15.531 16.584 15.6308 16.6714 15.7446 16.737Z" fill="white"/>
</svg>
