<svg width="41" height="40" viewBox="0 0 41 40" fill="none" xmlns="http://www.w3.org/2000/svg">
<rect x="0.333374" width="40" height="40" rx="6.66667" fill="#F59321"/>
<g clip-path="url(#clip0_199_163)">
<path d="M32.0521 23.2176C32.0521 23.4915 31.9296 23.7473 31.717 23.9202L27.6997 27.1377C27.4331 27.3502 27.0728 27.3935 26.763 27.2458C26.4495 27.098 26.2549 26.7918 26.2549 26.4459L26.2477 25.4695C26.2477 25.3758 26.1685 25.3002 26.0784 25.3002H22.5222C22.4285 25.3002 22.3493 25.3758 22.3493 25.4695V30.6362C22.3493 31.1298 21.953 31.5297 21.4594 31.5297H19.067C18.5734 31.5297 18.177 31.1298 18.177 30.6362V22.7493C18.177 22.6556 18.0977 22.5763 18.0041 22.5763H14.6245C14.5786 22.5764 14.5346 22.5946 14.5022 22.627C14.4698 22.6594 14.4515 22.7034 14.4515 22.7493L14.4587 23.6788C14.4623 24.0247 14.2713 24.331 13.9615 24.4859C13.6553 24.6372 13.2949 24.6012 13.0211 24.3886L8.95698 21.218C8.7408 21.0487 8.6147 20.7928 8.6147 20.519C8.61109 20.2416 8.73362 19.9858 8.94615 19.8164L12.9635 16.5989C13.2337 16.3828 13.5904 16.3395 13.9038 16.4872C14.2137 16.635 14.4083 16.9448 14.4119 17.2871L14.4191 18.2167C14.4191 18.314 14.4947 18.3896 14.5885 18.3896H18.0041C18.0978 18.3896 18.177 18.3103 18.177 18.2167V14.4984C18.177 14.4047 18.0977 14.3291 18.0041 14.3291L17.1322 14.3327H17.125C16.7827 14.3327 16.48 14.1453 16.3287 13.8391C16.1738 13.5292 16.2098 13.1689 16.4224 12.8951L19.5822 8.81652C19.7515 8.59672 20.0038 8.47063 20.2812 8.47063C20.5515 8.46346 20.8109 8.58955 20.9838 8.80569L24.1833 12.8375C24.3995 13.1077 24.4391 13.468 24.2914 13.7779C24.1436 14.0877 23.8374 14.2823 23.4951 14.2859L22.5187 14.2931C22.4286 14.2931 22.3494 14.3688 22.3494 14.4624V20.9406C22.3494 21.0343 22.4287 21.1099 22.5223 21.1099H26.0425C26.1362 21.1099 26.2118 21.0343 26.2118 20.937L26.2046 20.0578C26.201 19.712 26.392 19.4021 26.7018 19.2508C27.0116 19.0994 27.372 19.1355 27.6422 19.3481L31.7063 22.5187C31.9224 22.688 32.0485 22.9402 32.0521 23.2176Z" fill="white"/>
</g>
<defs>
<clipPath id="clip0_199_163">
<rect width="24" height="24" fill="white" transform="translate(8.33337 8)"/>
</clipPath>
</defs>
</svg>
