<svg width="41" height="40" viewBox="0 0 41 40" fill="none" xmlns="http://www.w3.org/2000/svg">
<rect x="0.666656" width="40" height="40" rx="6.66667" fill="#F59321"/>
<path d="M31.4893 18.2294C31.4893 17.2876 30.8327 16.4951 29.9497 16.2913V13.0626C30.8327 12.8543 31.4893 12.0709 31.4893 11.1291C31.4893 10.0287 30.5927 9.13208 29.4923 9.13208C28.3965 9.13208 27.5044 10.0287 27.5044 11.1291C27.5044 11.3328 27.5406 11.5276 27.5995 11.7132L25.0184 13.2709C24.6606 12.9087 24.158 12.6823 23.6101 12.6823C23.0486 12.6823 22.5459 12.9132 22.1836 13.2891L19.6161 11.7359C19.675 11.5457 19.7203 11.3419 19.7203 11.1291C19.7203 10.0287 18.8236 9.13208 17.7233 9.13208C16.6229 9.13208 15.7308 10.0287 15.7308 11.1291C15.7308 11.3419 15.7761 11.5457 15.835 11.7359L13.2629 13.2891C12.9006 12.9177 12.398 12.6823 11.8365 12.6823C10.7406 12.6823 9.84402 13.5789 9.84402 14.6792C9.84402 15.6211 10.5052 16.4045 11.3836 16.6128V19.837C10.5052 20.0453 9.84402 20.8332 9.84402 21.7796C9.84402 22.7215 10.5052 23.5049 11.3836 23.7132V26.9374C10.5052 27.1457 9.84402 27.9336 9.84402 28.88C9.84402 29.9759 10.7406 30.8679 11.8365 30.8679C12.9369 30.8679 13.8335 29.9759 13.8335 28.88C13.8335 28.6581 13.7882 28.4543 13.7248 28.2596L16.2923 26.7109C16.6546 27.0823 17.1618 27.3177 17.7233 27.3177C18.2848 27.3177 18.7919 27.0823 19.1542 26.7064L21.7263 28.2596C21.6629 28.4543 21.6176 28.6581 21.6176 28.88C21.6176 29.9759 22.5097 30.8679 23.6101 30.8679C24.7104 30.8679 25.6025 29.9759 25.6025 28.88C25.6025 28.6536 25.5572 28.4362 25.4893 28.2325L28.0478 26.6883C28.4146 27.0732 28.9218 27.3177 29.4923 27.3177C30.5927 27.3177 31.4893 26.4257 31.4893 25.3298C31.4893 24.3834 30.8327 23.5955 29.9497 23.3872V20.163C30.8327 19.9547 31.4893 19.1713 31.4893 18.2294ZM17.2704 23.3872C16.8325 23.4902 16.4422 23.7381 16.1627 24.0907C15.8833 24.4433 15.7311 24.8799 15.7308 25.3298C15.7308 25.5381 15.7716 25.7374 15.835 25.9276L13.2584 27.4808C12.9949 27.2094 12.6582 27.0206 12.2893 26.9374V23.7132C13.1723 23.5094 13.8335 22.7215 13.8335 21.7796C13.8335 21.5623 13.7882 21.3585 13.7248 21.1638L16.2969 19.6106C16.5595 19.8823 16.8946 20.077 17.2704 20.163V23.3872ZM17.2704 16.2868C16.3919 16.4951 15.7308 17.283 15.7308 18.2294C15.7308 18.4423 15.7716 18.6415 15.835 18.8317L13.2629 20.3849C12.9961 20.1146 12.6588 19.9247 12.2893 19.837V16.6128C13.1723 16.4091 13.8335 15.6211 13.8335 14.6792C13.8335 14.4664 13.7927 14.2626 13.7293 14.0679L16.2969 12.5147C16.5595 12.7864 16.8946 12.9766 17.2704 13.0626V16.2868ZM23.1572 26.9374C22.7859 27.0234 22.4508 27.2136 22.1882 27.4808L19.6161 25.9276C19.6795 25.7374 19.7203 25.5381 19.7203 25.3298C19.7203 24.3834 19.0591 23.5955 18.1761 23.3872V20.163C18.5565 20.0725 18.8916 19.8823 19.1542 19.6106L21.7263 21.1638C21.6584 21.3585 21.6176 21.5623 21.6176 21.7796C21.6176 22.7215 22.2787 23.5094 23.1572 23.7132V26.9374ZM23.1572 19.837C22.7814 19.923 22.4463 20.1177 22.1882 20.3849L19.6161 18.8317C19.675 18.6415 19.7203 18.4423 19.7203 18.2294C19.7203 17.2876 19.0591 16.4951 18.1761 16.2913V13.0626C18.5565 12.9721 18.8916 12.7819 19.1497 12.5147L21.7218 14.0679C21.6584 14.2626 21.6176 14.4619 21.6176 14.6792C21.6176 15.6211 22.2787 16.4091 23.1572 16.6128V19.837ZM29.044 23.3872C28.161 23.5909 27.5044 24.3834 27.5044 25.3298C27.5044 25.5291 27.5406 25.7192 27.5995 25.9049L25.0138 27.4626C24.7522 27.2021 24.4228 27.0201 24.0629 26.9374V23.7132C24.9459 23.5049 25.6025 22.717 25.6025 21.7796C25.6025 21.5532 25.5572 21.3404 25.4893 21.1366L28.0523 19.5925C28.3193 19.8764 28.6644 20.0749 29.044 20.163V23.3872ZM29.044 16.2868C28.161 16.4951 27.5044 17.283 27.5044 18.2294C27.5044 18.4332 27.5406 18.6234 27.5995 18.8091L25.0184 20.3668C24.7603 20.1087 24.4297 19.9276 24.0629 19.837V16.6128C24.9459 16.4045 25.6025 15.6211 25.6025 14.6792C25.6025 14.4574 25.5572 14.2445 25.4893 14.0408L28.0523 12.4966C28.3195 12.7728 28.6591 12.9766 29.044 13.0626V16.2868Z" fill="white"/>
</svg>
