<svg width="40" height="40" viewBox="0 0 40 40" fill="none" xmlns="http://www.w3.org/2000/svg">
<rect width="40" height="40" rx="6.66667" fill="#F59321"/>
<path fill-rule="evenodd" clip-rule="evenodd" d="M15 11.5C12 11.5 10 13 10 16.5V23.5C10 27 12 28.5 15 28.5H25C28 28.5 30 27 30 23.5V16.5C30 13 28 11.5 25 11.5H15ZM13 25.75C12.59 25.75 12.25 25.41 12.25 25C12.25 24.59 12.59 24.25 13 24.25H16C16.41 24.25 16.75 24.59 16.75 25C16.75 25.41 16.41 25.75 16 25.75H13ZM17 20C17 18.34 18.34 17 20 17C21.66 17 23 18.34 23 20C23 21.66 21.66 23 20 23C18.34 23 17 21.66 17 20ZM24 15.75C23.59 15.75 23.25 15.41 23.25 15C23.25 14.59 23.59 14.25 24 14.25H27C27.41 14.25 27.75 14.59 27.75 15C27.75 15.41 27.41 15.75 27 15.75H24Z" fill="white"/>
</svg>
