<svg width="40" height="40" viewBox="0 0 40 40" fill="none" xmlns="http://www.w3.org/2000/svg">
<rect width="40" height="40" rx="6.66667" fill="#F59321"/>
<path fill-rule="evenodd" clip-rule="evenodd" d="M15 10.4297C12 10.4297 10 12.4297 10 15.4297V21.4297C10 24.4297 12 26.4297 15 26.4297H19L23.45 29.3897C24.11 29.8297 25 29.3597 25 28.5597V26.4297C28 26.4297 30 24.4297 30 21.4297V15.4297C30 12.4297 28 10.4297 25 10.4297H15ZM16.5 19.2497C16.09 19.2497 15.75 18.9097 15.75 18.4997C15.75 18.0897 16.09 17.7497 16.5 17.7497H23.5C23.91 17.7497 24.25 18.0897 24.25 18.4997C24.25 18.9097 23.91 19.2497 23.5 19.2497H16.5Z" fill="white"/>
</svg>
