<svg width="40" height="40" viewBox="0 0 40 40" fill="none" xmlns="http://www.w3.org/2000/svg">
<rect width="40.0033" height="40.0033" rx="6.66667" fill="#F59321"/>
<path fill-rule="evenodd" clip-rule="evenodd" d="M20.0028 9.75171C20.0028 9.75171 20.0028 9.75171 19.9928 9.75171C16.4628 9.75171 12.4228 11.8217 11.3728 16.4417C10.2028 21.6017 13.3628 25.9717 16.2228 28.7217C17.2828 29.7417 18.6428 30.2517 20.0028 30.2517C21.3628 30.2517 22.7228 29.7417 23.7728 28.7217C26.6328 25.9717 29.7928 21.6117 28.6228 16.4517C27.5728 11.8317 23.5428 9.75171 20.0028 9.75171Z" fill="white"/>
<path fill-rule="evenodd" clip-rule="evenodd" d="M16.8528 18.3117C16.8528 16.5717 18.2628 15.1617 20.0028 15.1617C21.7428 15.1617 23.1528 16.5717 23.1528 18.3117C23.1528 20.0517 21.7428 21.4617 20.0028 21.4617C18.2628 21.4617 16.8528 20.0517 16.8528 18.3117Z" fill="#F59321"/>
</svg>
